<svg width="69" height="52" viewBox="0 0 69 52" fill="none" xmlns="http://www.w3.org/2000/svg">
<path d="M66.9671 28.8189C64.4724 25.1729 61.0183 23.2539 56.9885 22.2944C55.6452 22.1025 54.4938 21.9106 53.1505 21.9106C53.1505 24.7891 52.383 27.4756 50.8478 30.3541C48.1612 35.5353 43.7476 38.7975 38.5664 40.9084C40.4854 44.5544 43.5557 46.6653 47.2017 48.0086C50.6559 49.1599 54.11 49.3518 57.7561 48.3924C57.948 48.3924 58.3317 48.3924 58.5236 48.3924C60.0588 49.1599 61.7859 50.1194 63.3211 50.887C63.513 50.887 63.513 51.0789 63.7049 51.0789C63.513 49.3518 63.1292 47.8167 62.9373 46.2815C62.9373 45.8977 62.9373 45.7058 63.3211 45.5139C65.24 44.1706 66.9671 42.2517 67.9266 39.9489C69.6536 36.3029 69.2698 32.4649 66.9671 28.8189Z" fill="white"/>
<path d="M51.6154 14.8104C49.5046 9.82113 46.0505 6.367 41.253 3.87234C34.7286 0.418205 27.6284 -0.541274 20.5282 0.802001C13.8118 2.14528 8.05495 5.21562 4.02512 11.1644C-0.004704 16.9213 -0.580395 23.062 2.29805 29.5865C4.02512 33.2325 6.71167 36.1109 9.97391 38.4137C10.3577 38.7975 10.5496 38.9894 10.5496 39.5651C10.1658 42.0597 9.78202 44.5544 9.20633 47.2409C9.59012 47.049 9.78201 47.049 9.97391 46.8572C12.6605 45.5139 15.347 44.1706 18.0336 42.8273C18.4174 42.6354 18.8012 42.6354 19.1849 42.6354C24.9418 43.9787 30.8906 43.7868 36.4556 42.0597C37.2232 41.8678 37.7989 41.6759 38.3746 41.2922C36.8394 38.2218 36.6475 34.7677 37.9908 31.5054C39.1422 28.4351 41.4449 26.1323 44.1315 24.5972C47.0099 23.062 49.8884 22.2944 52.9587 22.2944C53.1506 19.6079 52.7668 17.1132 51.6154 14.8104ZM15.1551 27.0918C13.2362 27.0918 11.5091 25.5566 11.5091 23.4458C11.5091 21.5268 13.0443 19.7997 15.1551 19.7997C17.0741 19.7997 18.8012 21.3349 18.8012 23.4458C18.8012 25.5566 17.0741 27.0918 15.1551 27.0918ZM26.8608 27.0918C24.9418 27.0918 23.2148 25.5566 23.2148 23.4458C23.2148 21.3349 24.7499 19.7997 26.8608 19.7997C28.9717 19.7997 30.5068 21.3349 30.5068 23.4458C30.5068 25.5566 28.7798 27.0918 26.8608 27.0918ZM38.5665 27.0918C36.6475 27.0918 34.9205 25.5566 34.9205 23.4458C34.9205 21.5268 36.4556 19.7997 38.5665 19.7997C40.6773 19.7997 42.2125 21.3349 42.2125 23.4458C42.2125 25.5566 40.4855 27.0918 38.5665 27.0918Z" fill="white"/>
</svg>
