<svg width="60" height="61" viewBox="0 0 60 61" fill="none" xmlns="http://www.w3.org/2000/svg">
<path d="M29.7809 0.437319C30.9837 0.286976 30.8333 1.0387 30.8333 1.79041C30.8333 5.84969 30.9837 9.90897 31.7354 13.9683C33.2388 22.5378 38.0498 27.3488 46.6194 28.5516C50.5284 29.153 54.4373 29.3033 58.4966 29.4537C59.0979 29.4537 60 29.153 60 30.5061C60 31.7088 59.0979 31.4081 58.4966 31.5585C53.9863 31.7088 49.3256 31.7088 44.9656 32.7612C37.2981 34.5653 33.2388 39.0757 31.8857 46.8935C31.2844 50.8025 30.9837 54.7114 30.9837 58.6203C30.9837 59.3721 31.585 60.5748 30.0816 60.5748C28.2775 60.5748 29.1795 59.2217 29.0292 58.47C28.8789 54.7114 28.7285 50.8025 28.1271 47.0439C26.774 38.4743 21.963 33.6633 13.5438 32.3102C9.63486 31.7088 5.72592 31.5585 1.81698 31.4081C1.06526 31.4081 -0.137487 32.0095 0.0128566 30.3557C0.0128566 28.8523 1.21561 29.4537 1.81698 29.4537C5.57557 29.4537 9.48451 29.153 13.2431 28.5516C22.1134 27.3488 27.0747 22.3875 28.2775 13.5172C28.8789 9.60829 29.0292 5.69935 29.0292 1.79041C28.7285 1.18904 28.4278 0.286976 29.7809 0.437319Z" fill="#FEFEFE"/>
</svg>
