<svg width="34" height="63" viewBox="0 0 34 63" fill="none" xmlns="http://www.w3.org/2000/svg">
<path d="M32.9287 23.4379C32.3674 26.8056 31.9932 29.9862 31.4319 33.1668C31.2448 34.2894 30.8707 34.8506 29.561 34.8506C27.69 34.6635 25.8191 34.8506 23.9481 34.8506C22.4514 34.6635 22.0772 35.2248 22.0772 36.7216C22.0772 44.3925 22.0772 52.0634 22.0772 59.9214C22.0772 61.6052 21.8901 62.1665 20.0192 62.1665C17.2127 61.9794 14.2192 61.9794 11.4128 62.1665C9.91603 62.1665 9.54184 61.7923 9.72894 60.2956C9.72894 52.6247 9.72894 44.9538 9.72894 37.47C9.72894 35.599 9.35474 34.8506 7.4838 35.0377C5.42575 35.2248 3.5548 35.0377 1.49676 35.0377C0.374188 35.0377 0 34.6636 0 33.541C0 30.9217 0.187095 28.1152 0 25.4959C0 24.1862 0.187094 23.6249 1.68385 23.6249C3.92899 23.812 5.98704 23.6249 8.23217 23.6249C9.35474 23.6249 9.72894 23.2508 9.72894 22.1282C9.72894 18.7605 9.54184 15.3928 10.1031 12.0251C11.0386 5.10255 15.9031 0.425181 22.8256 0.0509913C25.8191 -0.136104 28.8126 0.238086 31.8061 0.425181C32.9287 0.612276 33.1158 0.986466 33.1158 2.10904C33.1158 4.35417 33.1158 6.59931 33.1158 8.84445C33.1158 10.1541 32.5545 10.3412 31.4319 10.3412C29.7481 10.3412 27.8771 10.1541 26.1933 10.7154C23.574 11.2767 22.0772 12.9605 22.0772 15.767C22.0772 18.0121 22.0772 20.0701 22.0772 22.3153C22.0772 23.625 22.4514 23.812 23.574 23.812C26.9417 23.2508 29.9352 23.4379 32.9287 23.4379Z" fill="#FEFEFE"/>
</svg>
