<svg width="30" height="30" viewBox="0 0 30 30" fill="none" xmlns="http://www.w3.org/2000/svg">
<path d="M28.2 15.3125C28.2 14.3375 28.1125 13.4 27.95 12.5H15V17.825H22.4C22.075 19.5375 21.1 20.9875 19.6375 21.9625V25.425H24.1C26.7 23.025 28.2 19.5 28.2 15.3125Z" fill="#4285F4"/>
<path d="M14.9996 28.75C18.7121 28.75 21.8246 27.525 24.0996 25.425L19.6371 21.9625C18.4121 22.7875 16.8496 23.2875 14.9996 23.2875C11.4246 23.2875 8.38711 20.875 7.29961 17.625H2.72461V21.175C4.98711 25.6625 9.62461 28.75 14.9996 28.75Z" fill="#34A853"/>
<path d="M7.3 17.6129C7.025 16.7879 6.8625 15.9129 6.8625 15.0004C6.8625 14.0879 7.025 13.2129 7.3 12.3879V8.83789H2.725C1.7875 10.6879 1.25 12.7754 1.25 15.0004C1.25 17.2254 1.7875 19.3129 2.725 21.1629L6.2875 18.3879L7.3 17.6129Z" fill="#FBBC05"/>
<path d="M14.9996 6.725C17.0246 6.725 18.8246 7.425 20.2621 8.775L24.1996 4.8375C21.8121 2.6125 18.7121 1.25 14.9996 1.25C9.62461 1.25 4.98711 4.3375 2.72461 8.8375L7.29961 12.3875C8.38711 9.1375 11.4246 6.725 14.9996 6.725Z" fill="#EA4335"/>
</svg>
