<svg width="71" height="71" viewBox="0 0 71 71" fill="none" xmlns="http://www.w3.org/2000/svg">
<path d="M26.6035 38.7834H31.0215L28.8439 32.6891L26.6035 38.7834Z" fill="white"/>
<path d="M66.0204 36.2924C65.848 35.9634 65.7854 35.7284 65.9734 35.368C67.164 33.112 68.3234 30.8404 69.4827 28.553C69.843 27.848 70.2661 27.1587 70.548 26.3754C70.2347 26.1717 69.9527 25.968 69.6707 25.7957C67.1954 24.1977 64.72 22.584 62.2447 21.0017C61.853 20.751 61.6807 20.4847 61.665 19.999C61.571 17.4767 61.4614 14.9387 61.3204 12.4164C61.2734 11.6644 61.242 10.9124 61.1794 10.129C60.443 10.0664 59.738 9.98805 59.0487 9.95671C56.448 9.83138 53.8317 9.70605 51.231 9.61205C50.8237 9.59638 50.573 9.45538 50.3537 9.11071C49.257 7.37171 48.1134 5.64838 47.001 3.92505C46.2804 2.85971 45.5754 1.79438 44.8704 0.713379C41.69 2.34271 38.5567 3.94071 35.4704 5.52305C32.3057 3.90938 29.2037 2.31138 26.0704 0.729045C25.8354 1.05805 25.6474 1.34005 25.4594 1.62205C23.8457 4.11305 22.232 6.61971 20.6184 9.11071C20.4304 9.40838 20.2424 9.62771 19.835 9.64338C17.5477 9.73738 15.2447 9.84704 12.9574 9.97238C11.892 10.0194 10.8424 10.0977 9.7457 10.1604C9.58904 13.466 9.4167 16.6934 9.2757 19.9207C9.26004 20.4377 9.11904 20.7667 8.64904 21.0644C6.04837 22.7094 3.47904 24.4014 0.894037 26.0777C0.706036 26.203 0.455369 26.2657 0.392702 26.532C1.8967 29.4774 3.4007 32.4227 4.92037 35.368C5.07704 35.6657 5.1397 35.9007 4.96737 36.2297C3.80804 38.4544 2.66437 40.679 1.53637 42.9037C1.1447 43.6557 0.768703 44.4234 0.345703 45.2224C0.64337 45.426 0.894036 45.5984 1.16037 45.7707C3.6827 47.4 6.20504 49.0294 8.72737 50.643C9.02504 50.831 9.26004 51.0034 9.2757 51.4264C9.30704 52.6484 9.3697 53.8704 9.43237 55.0924C9.54204 57.1917 9.6517 59.3067 9.76137 61.5157C13.067 61.6724 16.2944 61.8447 19.5217 61.9857C20.0857 62.0014 20.4147 62.1894 20.7124 62.6594C22.279 65.1347 23.8614 67.5787 25.4594 70.0227C25.6474 70.3204 25.7884 70.6807 26.133 70.8844C29.235 69.2864 32.3527 67.704 35.4547 66.106C38.5724 67.704 41.69 69.2864 44.7764 70.8687C45.0897 70.6964 45.1837 70.4144 45.3404 70.1794C46.9854 67.6414 48.6304 65.1034 50.2597 62.5497C50.5104 62.1424 50.7924 62.0014 51.2624 61.9857C53.863 61.8917 56.4794 61.7664 59.08 61.641C59.7537 61.6097 60.4117 61.5314 61.0854 61.4687C61.1167 61.359 61.148 61.2807 61.148 61.2024C61.3047 58.0534 61.477 54.9044 61.618 51.7554C61.6337 51.207 61.7904 50.8624 62.276 50.549C64.7514 48.9824 67.1954 47.4 69.6394 45.802C69.937 45.614 70.2974 45.473 70.501 45.1284C70.3914 44.8934 70.2817 44.6584 70.1564 44.439C68.8091 41.713 67.4147 39.0027 66.0204 36.2924ZM19.9917 42.0107C19.647 42.6374 19.177 43.1544 18.5974 43.5617C18.002 43.969 17.344 44.251 16.6077 44.4234C15.8714 44.5957 15.1194 44.6897 14.3204 44.6897C13.1924 44.6897 12.1427 44.5017 11.187 44.1414C10.2157 43.781 9.43237 43.2014 8.79004 42.4337C8.16337 41.6504 7.7717 40.6634 7.61504 39.4414H11.2654C11.3907 39.8957 11.61 40.2717 11.9234 40.5537C12.2367 40.8357 12.6284 41.0394 13.0984 41.1647C13.5527 41.29 14.054 41.3527 14.571 41.3527C14.9314 41.3527 15.276 41.3057 15.6364 41.2274C15.9967 41.149 16.2944 41.008 16.5294 40.7887C16.7644 40.585 16.8897 40.2874 16.8897 39.927C16.8897 39.645 16.827 39.4257 16.686 39.2534C16.545 39.081 16.357 38.94 16.122 38.8304C15.887 38.7207 15.5737 38.6267 15.2134 38.5327C14.994 38.47 14.759 38.423 14.524 38.376C14.289 38.329 14.054 38.282 13.8347 38.2194C13.6154 38.1567 13.396 38.094 13.161 38.0157C12.4874 37.859 11.8607 37.671 11.2497 37.4517C10.6387 37.2324 10.106 36.966 9.63604 36.6214C9.16604 36.2767 8.8057 35.838 8.53937 35.2897C8.27304 34.7414 8.13204 34.052 8.13204 33.2374C8.13204 32.454 8.27304 31.7804 8.53937 31.2164C8.82137 30.6524 9.1817 30.2137 9.6517 29.8534C10.1217 29.5087 10.623 29.2424 11.187 29.0544C11.751 28.8664 12.2994 28.741 12.8634 28.6627C13.4117 28.5844 13.9287 28.553 14.4144 28.553C15.464 28.553 16.404 28.741 17.2344 29.1327C18.0647 29.5244 18.7227 30.0884 19.2397 30.8404C19.7567 31.5924 20.0544 32.5167 20.164 33.6134H16.6704C16.6077 33.2217 16.4667 32.9084 16.216 32.6577C15.9654 32.407 15.6677 32.219 15.276 32.078C14.9 31.937 14.4614 31.8744 13.9757 31.8744C13.678 31.8744 13.396 31.9057 13.114 31.9527C12.832 31.9997 12.597 32.078 12.409 32.1877C12.2054 32.2974 12.0487 32.4227 11.9234 32.595C11.798 32.7674 11.7354 32.971 11.7354 33.2217C11.7354 33.488 11.8294 33.7074 12.0017 33.8954C12.174 34.0834 12.4404 34.24 12.7694 34.381C13.0984 34.522 13.5214 34.6474 14.007 34.7884C14.3517 34.9137 14.6964 34.992 15.0567 35.0704C15.417 35.133 15.7774 35.227 16.1064 35.321C16.733 35.462 17.297 35.65 17.8297 35.838C18.3624 36.0417 18.8167 36.2924 19.224 36.59C19.6314 36.8877 19.9447 37.295 20.164 37.7964C20.399 38.2977 20.5087 38.9244 20.5087 39.6764C20.5087 40.6007 20.3364 41.3684 19.9917 42.0107ZM33.0264 44.5017L32.1647 42.0577H25.475L24.582 44.5017H20.7124L26.932 28.7567H30.7547L36.9117 44.5017H33.0264ZM49.821 44.5017H38.447V28.7567H42.0504V41.196H49.821V44.5017ZM63.4197 32.0937H55.414V35.0704H62.1507V38.2664H55.414V41.1804H63.4197V44.5017H51.8107V28.7567H63.4197V32.0937Z" fill="white"/>
</svg>
