<svg width="26" height="26" viewBox="0 0 26 26" fill="currentColor" xmlns="http://www.w3.org/2000/svg">
<path d="M18.0005 6.4L3.60053 6.7L2.60053 2.7C2.40053 1.7 1.50053 2.2 1.50053 2.2C0.900534 2.3 1.30053 3.4 1.30053 3.4L4.30053 15.7C4.30053 15.7 5.00053 20.3 8.70053 19L22.6005 14.5C22.6005 14.5 24.8005 13.7 24.8005 11.3L25.0005 9C25.0005 9 25.5005 6.1 22.3005 6.4H18.0005Z" fill="currentColor"/>
<path d="M18.6012 24.1C19.6505 24.1 20.5012 23.2493 20.5012 22.2C20.5012 21.1507 19.6505 20.3 18.6012 20.3C17.5518 20.3 16.7012 21.1507 16.7012 22.2C16.7012 23.2493 17.5518 24.1 18.6012 24.1Z" fill="currentColor" stroke="currentColor" stroke-width="1.0194" stroke-miterlimit="10"/>
<path d="M4.30039 24.1C5.34973 24.1 6.20039 23.2493 6.20039 22.2C6.20039 21.1507 5.34973 20.3 4.30039 20.3C3.25105 20.3 2.40039 21.1507 2.40039 22.2C2.40039 23.2493 3.25105 24.1 4.30039 24.1Z" fill="currentColor" stroke="currentColor" stroke-width="1.0194" stroke-miterlimit="10"/>
</svg>
