<svg width="57" height="55" viewBox="0 0 57 55" fill="none" xmlns="http://www.w3.org/2000/svg">
<path d="M35.214 30.8259C41.802 21.3246 40.0764 9.5291 30.1284 2.89034C23.4185 -1.59641 13.5416 -1.18021 6.70998 6.41274C0.396053 13.4271 0.588923 22.9589 4.63918 28.9277C5.65428 27.943 7.68448 26.6945 8.80109 26.4914C4.26359 19.5278 6.92315 11.1228 13.298 7.22482C19.7845 3.25578 28.0982 5.21492 32.1383 11.7014C34.0974 14.8381 34.7471 18.3199 33.9248 21.9032C32.7676 26.9381 29.8441 30.6026 24.9412 32.3892C25.9563 33.6987 26.8699 35.2213 27.2252 36.8252C28.829 35.9217 30.4227 35.0284 31.9048 34.1961C32.8285 35.0995 33.7421 35.9826 34.7877 36.9977L48.593 50.9554C51.9429 55.5233 54.643 52.6607 54.643 52.6607C58.6425 49.2297 55.0897 46.895 55.0897 46.895L35.214 30.8259Z" fill="white"/>
<path d="M0.000119247 40.9363C-0.0303338 48.1842 5.77604 54.2748 12.7396 54.3052C20.1093 54.3357 25.9258 48.4481 25.9563 40.9363C25.9867 33.6479 20.2209 27.5472 13.2675 27.5066C5.83695 27.466 0.0305723 33.3332 0.000119247 40.9363ZM11.3794 49.7068C8.76044 47.0777 6.25314 44.5501 3.72554 42.0225C4.41581 41.2307 5.14668 40.3882 5.68469 39.769C7.57277 41.454 9.41011 43.0985 11.3286 44.814C14.2115 41.454 17.1756 38.0027 20.0179 34.6935C20.9011 35.5462 21.6827 36.2973 22.5354 37.1196C18.7693 41.3728 15.0033 45.6261 11.3794 49.7068Z" fill="white"/>
</svg>
