<svg width="26" height="26" viewBox="0 0 26 26" fill="none" xmlns="http://www.w3.org/2000/svg">
<path d="M2.40181 20.564C2.28818 21.091 2.1939 21.5624 2.08752 22.029C1.9739 22.5295 1.62577 22.851 1.15675 22.9042C0.731258 22.9525 0.274334 22.7156 0.105103 22.3095C0.0253227 22.1209 -0.0254463 21.8815 0.0132351 21.6881C0.29851 20.2618 0.603126 18.8402 0.91983 17.4211C1.05521 16.8167 1.57741 16.4927 2.19148 16.6185C3.58159 16.9061 4.96929 17.2035 6.35698 17.5081C6.95413 17.6387 7.31435 18.1778 7.20555 18.7338C7.09193 19.3116 6.59391 19.6743 5.97984 19.5727C5.36819 19.4736 4.76621 19.3262 4.1594 19.2004C4.12797 19.1932 4.09412 19.1884 3.98291 19.169C4.29478 19.551 4.54621 19.8991 4.83874 20.2062C7.1983 22.6914 10.0849 23.8809 13.5155 23.615C16.4915 23.3829 18.9333 22.0629 20.8262 19.7686C22.0906 18.2358 22.8594 16.4661 23.1036 14.4813C23.4783 11.4279 22.6975 8.69361 20.7271 6.34613C18.8632 4.12195 16.448 2.82612 13.5421 2.61579C9.53611 2.32568 6.34248 3.8681 3.97082 7.10767C3.91522 7.18503 3.86445 7.26481 3.80401 7.33734C3.43654 7.80635 2.82489 7.90789 2.35346 7.58393C1.87961 7.25514 1.73939 6.61448 2.09236 6.12371C2.51302 5.53624 2.94577 4.94877 3.43896 4.42415C5.38753 2.35469 7.77369 1.04195 10.5805 0.62612C15.2948 -0.0725625 19.2596 1.40942 22.3638 5.01888C24.4744 7.47273 25.4124 10.3883 25.3012 13.6134C25.1102 19.0941 21.3581 23.8229 16.0684 25.3097C11.1462 26.6925 5.82028 24.9398 2.67016 20.9C2.59522 20.8057 2.52027 20.7138 2.40181 20.564Z" fill="white"/>
<path d="M12.4059 10.6278C12.4059 9.85171 12.401 9.07809 12.4083 8.30204C12.4131 7.67347 12.7371 7.25281 13.2738 7.15369C13.8999 7.04006 14.4705 7.48248 14.514 8.1183C14.5212 8.22226 14.5212 8.3238 14.5212 8.42775C14.5212 9.76226 14.5164 11.0992 14.5285 12.4337C14.5309 12.5691 14.601 12.7359 14.6953 12.8326C16.1386 14.2904 17.5867 15.7385 19.0397 17.1867C19.2815 17.4284 19.4555 17.6968 19.4459 18.0473C19.4338 18.4801 19.2331 18.8065 18.8221 18.9733C18.4208 19.1352 18.0316 19.1425 17.6931 18.8234C17.6375 18.7702 17.5795 18.717 17.5239 18.6638C15.967 17.1021 14.41 15.5379 12.8434 13.9858C12.5412 13.686 12.3986 13.35 12.4034 12.9269C12.4131 12.1605 12.4059 11.3941 12.4059 10.6278Z" fill="white"/>
</svg>
