<svg width="150" height="55" viewBox="0 0 150 55" fill="none" xmlns="http://www.w3.org/2000/svg">
<g clip-path="url(#clip0_2196_147)">
<path d="M19.1794 49.3107C18.7225 49.3107 18.2585 49.2607 17.7874 49.1608C17.3163 49.0751 16.8666 48.9324 16.4383 48.7325C16.01 48.5326 15.6317 48.2757 15.3033 47.9616C14.9893 47.6475 14.7608 47.2692 14.6181 46.8266H15.6246C15.853 47.2692 16.1671 47.619 16.5668 47.8759C16.9665 48.1186 17.3948 48.2899 17.8517 48.3899C18.3228 48.4898 18.7725 48.5398 19.2008 48.5398C19.5719 48.5398 19.9574 48.5112 20.3571 48.4541C20.7569 48.3827 21.1281 48.2685 21.4707 48.1115C21.8276 47.9402 22.1131 47.7118 22.3273 47.4262C22.5414 47.1264 22.6485 46.7481 22.6485 46.2913C22.6485 45.8202 22.5271 45.449 22.2844 45.1777C22.056 44.9065 21.7634 44.6995 21.4064 44.5567C21.0495 44.3997 20.6998 44.2855 20.3571 44.2141C20.1573 44.1712 19.9431 44.1284 19.7147 44.0856C19.4863 44.0428 19.2507 43.9999 19.008 43.9571C18.5797 43.8857 18.13 43.7929 17.6589 43.6787C17.1878 43.5502 16.7452 43.3718 16.3312 43.1434C15.9172 42.9149 15.5817 42.608 15.3248 42.2225C15.0678 41.8371 14.9393 41.3445 14.9393 40.7449C14.9393 40.1596 15.0535 39.6742 15.2819 39.2888C15.5246 38.9033 15.8387 38.5964 16.2242 38.3679C16.6239 38.1395 17.0665 37.9753 17.5519 37.8754C18.0515 37.7755 18.5583 37.7255 19.0723 37.7255C19.6291 37.7255 20.1787 37.804 20.7212 37.9611C21.278 38.1181 21.7634 38.3679 22.1774 38.7106C22.5914 39.0532 22.884 39.5029 23.0554 40.0597H22.156C21.899 39.5029 21.4636 39.1032 20.8497 38.8605C20.2358 38.6178 19.6362 38.4964 19.0509 38.4964C18.7511 38.4964 18.4156 38.5178 18.0444 38.5607C17.6732 38.6035 17.3163 38.7034 16.9737 38.8605C16.6453 39.0032 16.3669 39.2245 16.1385 39.5243C15.9244 39.8241 15.8173 40.2239 15.8173 40.7235C15.8173 41.2089 15.9386 41.6015 16.1813 41.9013C16.424 42.2011 16.731 42.4367 17.1022 42.608C17.4733 42.765 17.8517 42.8935 18.2371 42.9935C18.6797 43.0934 19.1365 43.1862 19.6076 43.2718C20.093 43.3432 20.5642 43.436 21.021 43.5502C21.5207 43.6787 21.9561 43.85 22.3273 44.0642C22.6985 44.2783 22.9911 44.5567 23.2053 44.8993C23.4194 45.242 23.5265 45.6703 23.5265 46.1842C23.5265 46.7981 23.398 47.3049 23.141 47.7046C22.884 48.1044 22.5414 48.4256 22.1131 48.6683C21.6991 48.8967 21.2351 49.0609 20.7212 49.1608C20.2072 49.2607 19.6933 49.3107 19.1794 49.3107ZM30.9553 49.3107C29.7846 49.3107 28.7995 49.0609 28.0001 48.5612C27.2149 48.0615 26.6224 47.3763 26.2227 46.5054C25.8229 45.6346 25.6231 44.6424 25.6231 43.5288C25.6231 42.401 25.8229 41.4016 26.2227 40.5308C26.6224 39.6599 27.2149 38.9747 28.0001 38.475C28.7995 37.9753 29.7846 37.7255 30.9553 37.7255C32.1259 37.7255 33.1038 37.9753 33.889 38.475C34.6885 38.9747 35.2881 39.6599 35.6878 40.5308C36.1019 41.4016 36.3089 42.401 36.3089 43.5288C36.3089 44.6424 36.1019 45.6346 35.6878 46.5054C35.2881 47.3763 34.6885 48.0615 33.889 48.5612C33.1038 49.0609 32.1259 49.3107 30.9553 49.3107ZM30.9553 48.5398C31.9832 48.5398 32.8255 48.3185 33.4822 47.8759C34.1389 47.4334 34.6243 46.8338 34.9383 46.0771C35.2524 45.3205 35.4095 44.471 35.4095 43.5288C35.4095 42.6009 35.2524 41.7586 34.9383 41.0019C34.6243 40.231 34.1389 39.6243 33.4822 39.1817C32.8255 38.7248 31.9832 38.4964 30.9553 38.4964C29.9274 38.4964 29.0851 38.7248 28.4284 39.1817C27.7717 39.6243 27.2863 40.231 26.9722 41.0019C26.6724 41.7586 26.5225 42.6009 26.5225 43.5288C26.5225 44.471 26.6724 45.3205 26.9722 46.0771C27.2863 46.8338 27.7717 47.4334 28.4284 47.8759C29.0851 48.3185 29.9274 48.5398 30.9553 48.5398ZM39.0599 49.1608V34.0208H39.9593V49.1608H39.0599ZM47.6339 49.3107C46.035 49.3107 44.8786 48.8753 44.1648 48.0044C43.451 47.1336 43.094 45.8987 43.094 44.2997V37.8754H43.9935V44.3211C43.9935 45.1206 44.1077 45.8416 44.3361 46.484C44.5788 47.1264 44.9642 47.6332 45.4925 48.0044C46.035 48.3613 46.7488 48.5398 47.6339 48.5398C48.5619 48.5398 49.29 48.3685 49.8182 48.0258C50.3607 47.6689 50.7461 47.1764 50.9745 46.5482C51.2172 45.9058 51.3386 45.1634 51.3386 44.3211V37.8754H52.238V44.2997C52.238 45.8844 51.8811 47.1193 51.1673 48.0044C50.4535 48.8753 49.2757 49.3107 47.6339 49.3107ZM59.8473 49.1608C59.0764 49.1608 58.434 49.0395 57.92 48.7968C57.4203 48.5398 57.042 48.1472 56.785 47.619C56.5424 47.0907 56.421 46.4126 56.421 45.5846V38.6249H54.4295V37.8754H56.421V34.4919H57.3204V37.8754H60.6611V38.6249H57.3204V45.4989C57.3204 46.4697 57.5203 47.1978 57.92 47.6832C58.3197 48.1543 59.0193 48.3899 60.0186 48.3899H60.5968V49.1608H59.8473ZM63.0247 49.1608V37.8754H63.9241V49.1608H63.0247ZM63.453 35.7554C63.2103 35.7554 63.0104 35.684 62.8534 35.5412C62.6963 35.3985 62.6178 35.1843 62.6178 34.8988C62.6178 34.6276 62.6963 34.4277 62.8534 34.2992C63.0247 34.1564 63.2317 34.0851 63.4744 34.0851C63.7171 34.0851 63.9169 34.1564 64.074 34.2992C64.231 34.442 64.3095 34.6418 64.3095 34.8988C64.3095 35.1701 64.2239 35.3842 64.0526 35.5412C63.8955 35.684 63.6957 35.7554 63.453 35.7554ZM71.9647 49.3107C70.794 49.3107 69.809 49.0609 69.0095 48.5612C68.2243 48.0615 67.6318 47.3763 67.2321 46.5054C66.8324 45.6346 66.6325 44.6424 66.6325 43.5288C66.6325 42.401 66.8324 41.4016 67.2321 40.5308C67.6318 39.6599 68.2243 38.9747 69.0095 38.475C69.809 37.9753 70.794 37.7255 71.9647 37.7255C73.1353 37.7255 74.1133 37.9753 74.8984 38.475C75.6979 38.9747 76.2975 39.6599 76.6973 40.5308C77.1113 41.4016 77.3183 42.401 77.3183 43.5288C77.3183 44.6424 77.1113 45.6346 76.6973 46.5054C76.2975 47.3763 75.6979 48.0615 74.8984 48.5612C74.1133 49.0609 73.1353 49.3107 71.9647 49.3107ZM71.9647 48.5398C72.9926 48.5398 73.8349 48.3185 74.4916 47.8759C75.1483 47.4334 75.6337 46.8338 75.9478 46.0771C76.2618 45.3205 76.4189 44.471 76.4189 43.5288C76.4189 42.6009 76.2618 41.7586 75.9478 41.0019C75.6337 40.231 75.1483 39.6243 74.4916 39.1817C73.8349 38.7248 72.9926 38.4964 71.9647 38.4964C70.9368 38.4964 70.0945 38.7248 69.4378 39.1817C68.7811 39.6243 68.2957 40.231 67.9816 41.0019C67.6818 41.7586 67.5319 42.6009 67.5319 43.5288C67.5319 44.471 67.6818 45.3205 67.9816 46.0771C68.2957 46.8338 68.7811 47.4334 69.4378 47.8759C70.0945 48.3185 70.9368 48.5398 71.9647 48.5398ZM80.0265 49.1608V37.8754H80.9259V40.1025C81.2686 39.5315 81.6612 39.0746 82.1037 38.732C82.5463 38.3894 83.0317 38.1395 83.5599 37.9825C84.0881 37.8112 84.6449 37.7255 85.2302 37.7255C86.3152 37.7255 87.1718 37.9611 87.8 38.4322C88.4424 38.9033 88.8992 39.5315 89.1705 40.3167C89.456 41.0876 89.5988 41.9513 89.5988 42.9078V49.1608H88.6994V43.4432C88.6994 42.815 88.6565 42.2083 88.5709 41.6229C88.4852 41.0376 88.321 40.5094 88.0783 40.0383C87.8356 39.5671 87.4787 39.196 87.0076 38.9247C86.5508 38.6392 85.9512 38.4964 85.2088 38.4964C84.2666 38.4964 83.4742 38.7248 82.8318 39.1817C82.2037 39.6385 81.7254 40.2453 81.3971 41.0019C81.083 41.7443 80.9259 42.5509 80.9259 43.4217V49.1608H80.0265Z" fill="#7F7F7F"/>
<path d="M11.9 31.9L1 1.6H9.4L16.9 25.4L24.1 1.6H32.5L21.7 31.9H11.9Z" fill="white"/>
<path d="M32.5 31.9V9.3H40.1V31.9H32.5Z" fill="white"/>
<path d="M42.8008 31.9V9.3H49.4008L49.9008 11.4C50.5008 10.6 51.1008 10 51.8008 9.6C52.5008 9.2 53.2008 9 53.9008 8.9C54.6008 8.8 55.2008 8.8 55.8008 8.8C56.3008 8.8 56.7008 8.8 57.1008 8.8C57.5008 8.8 59.8008 8.9 59.9008 8.9L57.9008 16.2H56.4008C55.3008 16.2 54.4008 16.3 53.4008 16.6C52.5008 16.9 51.7008 17.4 51.2008 18.1C50.6008 18.9 50.4008 20 50.4008 21.5V31.8L42.8008 31.9Z" fill="white"/>
<path d="M67.3004 32.3C66.2004 32.3 65.2004 32.2 64.3004 31.9C63.4004 31.6 62.5004 31.2 61.8004 30.6C61.0004 30 60.4004 29.2 60.0004 28.4C59.6004 27.5 59.4004 26.5 59.4004 25.4C59.4004 23.7 59.8004 22.3 60.5004 21.4C61.2004 20.4 62.2004 19.7 63.5004 19.3C64.7004 18.8 66.2004 18.6 67.7004 18.4C69.3004 18.3 70.9004 18.2 72.6004 18.2H73.6004C73.6004 17.7 73.5004 17.2 73.2004 16.7C72.9004 16.3 72.6004 15.9 72.1004 15.7C71.6004 15.4 71.1004 15.3 70.4004 15.3C69.9004 15.3 69.4004 15.4 69.0004 15.5C68.5004 15.6 68.2004 15.8 67.9004 16.1C67.6004 16.4 67.4004 16.6 67.4004 17H59.9004C60.1004 15.6 60.5004 14.4 61.1004 13.4C61.8004 12.4 62.6004 11.6 63.6004 10.9C64.6004 10.3 65.7004 9.8 67.0004 9.5C68.2004 9.2 69.5004 9 70.9004 9C74.2004 9 76.7004 9.9 78.4004 11.8C80.1004 13.6 81.0004 16.4 81.0004 19.9V24.7L73.8004 32.2L74.0004 29.1C73.3004 30.2 72.4004 31 71.5004 31.5C70.6004 32 69.7004 32.2 69.0004 32.3C68.1004 32.2 67.5004 32.3 67.3004 32.3ZM69.3004 26.5C70.0004 26.5 70.7004 26.3 71.4004 26C72.1004 25.6 72.6004 25.2 73.1004 24.7C73.5004 24.2 73.8004 23.6 73.8004 23.1V22.9H69.6004C69.3004 22.9 68.9004 22.9 68.6004 23C68.3004 23.1 68.0004 23.2 67.8004 23.3C67.6004 23.4 67.4004 23.6 67.2004 23.9C67.1004 24.1 67.0004 24.4 67.0004 24.8C67.0004 25.2 67.1004 25.5 67.3004 25.8C67.5004 26.1 67.8004 26.3 68.2004 26.4C68.4004 26.4 68.9004 26.5 69.3004 26.5Z" fill="white"/>
<path d="M83.2008 31.9H77.8008L92.7008 16.1H83.2008L85.2008 9.3H102.501V14.7L93.0008 25.1H102.601L100.901 31.9L101.601 29.2H88.1008L90.0008 31.9H83.2008Z" fill="white"/>
<path d="M105.199 29.2V1.6H112.799V11.4C113.499 10.7 114.299 10.1 115.099 9.8C115.899 9.4 116.699 9.2 117.499 9.1C118.299 9 118.899 8.9 119.499 8.9C121.599 8.9 123.199 9.4 124.399 10.4C125.599 11.4 126.399 12.7 126.899 14.3C127.399 15.9 127.599 17.7 127.599 19.6V29.3H119.999V20.2C119.999 19.7 119.899 19.3 119.799 18.8C119.699 18.3 119.499 17.8 119.199 17.4C118.899 17 118.599 16.6 118.099 16.4C117.599 16.1 117.099 16 116.299 16C115.599 16 115.099 16.1 114.599 16.4C114.099 16.7 113.699 17 113.499 17.4C113.199 17.8 112.999 18.3 112.899 18.8C112.799 19.3 112.699 19.9 112.699 20.4V29.3L105.199 29.2Z" fill="white"/>
<path d="M32.3008 6.6C32.3008 6.6 40.4008 7.5 40.3008 4.9C40.3008 4.9 40.0008 2.3 35.6008 3.5C35.6008 3.5 32.8008 4.3 32.3008 6.6Z" fill="white"/>
<path d="M91.9996 34.4H94.2996L90.6996 35.9L92.7996 35.6L94.7996 38.3L131.4 33.1L94.4996 40.7L92.5996 48.1L95.9996 48L87.5996 51.6L100.2 47L98.8996 42.5L104.2 48.6L110.6 46.9L100.6 51.1L105 50L108 53.5L149 29.3L127.5 29.2V31.9H120V29.2H112.7V31.9H105.1V29.2H101.5L100.9 31.9H90.0996L91.9996 34.4Z" fill="#2E7EFF"/>
</g>
<defs>
<clipPath id="clip0_2196_147">
<rect width="150" height="55" fill="white"/>
</clipPath>
</defs>
</svg>
