<svg width="66" height="66" viewBox="0 0 66 66" fill="none" xmlns="http://www.w3.org/2000/svg">
<path d="M8.83801 26.7466L0.333008 27.4816V38.5066L9.09467 40.1166C8.49967 37.9349 7.12301 35.4266 7.12301 33.0582C7.12301 30.8882 8.32467 28.7766 8.83801 26.7466Z" fill="white"/>
<path d="M20.3534 11.2649L13.8551 6.73828L6.1084 14.0883L11.2301 20.7849C13.4467 17.0283 16.6084 13.4933 20.3534 11.2649Z" fill="white"/>
<path d="M54.5009 20.7848L59.4242 14.0882L51.9342 5.94482L45.5059 11.2648C49.2392 13.4815 52.2842 17.0632 54.5009 20.7848Z" fill="white"/>
<path d="M57.29 39.5333L65.2 38.25V27.75L57.29 26.4316C57.8384 28.5316 58.6667 30.795 58.6667 33.0583C58.6667 35.2516 57.8034 37.515 57.29 39.5333Z" fill="white"/>
<path d="M39.3344 8.58163L38.2844 0.834961H27.6444L26.5244 8.51163C28.5311 8.00996 30.7011 7.71829 32.8711 7.71829C35.0761 7.71829 37.2927 8.05663 39.3344 8.58163Z" fill="white"/>
<path d="M26.6299 57.0332L27.7732 65.1765H38.5416L39.5215 57.5582C37.4215 58.1065 35.1582 58.5149 32.8949 58.5149C30.7949 58.5032 28.5782 57.4999 26.6299 57.0332Z" fill="white"/>
<path d="M45.1797 54.7697L51.8064 59.4014L59.2964 51.9114L54.828 45.7397C52.5997 49.5197 48.9714 52.5414 45.1797 54.7697Z" fill="white"/>
<path d="M56.7298 26.5014H57.8148C57.1964 24.1681 56.2631 21.9631 55.0614 19.9331L54.3848 20.6214L56.7298 26.5014Z" fill="white"/>
<path d="M39.4746 56.8351V57.9901C41.7613 57.3834 43.9313 56.4734 45.9146 55.3068L45.0046 54.5718L39.4746 56.8351Z" fill="white"/>
<path d="M45.203 11.4051L45.9963 10.8801C43.9196 9.65513 41.6563 8.71013 39.2646 8.0918L39.463 9.58513L45.203 11.4051Z" fill="white"/>
<path d="M57.2898 39.5335L54.3965 45.4718L55.1082 46.1252C56.3332 44.0485 57.2782 41.7852 57.8848 39.3818L57.2898 39.5335Z" fill="white"/>
<path d="M26.4312 8.94341L26.6062 8.08008C24.1679 8.68674 21.8695 9.64341 19.7695 10.9034L20.7845 11.7084L26.4312 8.94341Z" fill="white"/>
<path d="M8.89659 39.9067H8.04492C8.66326 42.1584 9.58492 44.2934 10.7516 46.2534L11.4283 45.4017L8.89659 39.9067Z" fill="white"/>
<path d="M20.8783 54.5718L19.875 55.3068C22.01 56.5551 24.3317 57.5118 26.805 58.1068L26.63 57.0334L20.8783 54.5718Z" fill="white"/>
<path d="M57.5814 39.4283L57.8848 39.3817C58.3981 37.3633 58.6664 35.24 58.6664 33.0583C58.6664 30.7833 58.3748 28.59 57.8148 26.49L57.4414 26.4317L54.8164 20.26L55.0614 19.9333C52.8448 16.2 49.7181 13.085 45.9964 10.88L45.7631 11.0783L39.3348 8.58167L39.2648 8.09167C37.2231 7.57834 35.0998 7.29834 32.8948 7.29834C30.7248 7.29834 28.6248 7.56667 26.6064 8.06834L26.5948 8.18501L20.0264 11.0667L19.7698 10.88C16.0131 13.1083 12.8748 16.2583 10.6581 20.0267L10.8331 20.26L8.47643 26.7L7.91643 26.7583C7.4031 28.7767 7.13477 30.8883 7.13477 33.07C7.13477 35.4383 7.46143 37.7367 8.05643 39.9067L8.3481 39.965L10.9731 46.0083L10.7631 46.265C12.9914 49.9983 16.1298 53.1133 19.8864 55.3183L20.0381 55.2017L26.7348 57.57L26.8164 58.1183C28.7764 58.5967 30.8064 58.8417 32.9064 58.8417C35.1814 58.8417 37.3864 58.55 39.4864 57.99L39.5448 57.5583L45.3664 54.9333L45.9148 55.3067C49.7064 53.0783 52.8798 49.9167 55.1081 46.1367L54.8281 45.74L57.5814 39.4283ZM19.5831 47.9683C10.7514 40.5833 13.1548 29.0683 13.1548 29.0683C16.3048 15.4067 32.4164 13.5633 32.4164 13.5633L32.5798 8.71001L41.7731 15.535L32.4514 21.9633V17.7633C20.3764 19.735 18.0081 29.185 18.0081 29.185C15.3831 38.3783 23.3864 45.6 23.3864 45.6L19.5831 47.9683ZM29.2081 39.6033C28.5548 39.2183 28.0064 38.705 27.5748 38.0517C27.1431 37.3983 26.8864 36.605 26.7814 35.6717H30.2114C30.3398 36.1033 30.5498 36.465 30.8531 36.7333C31.1564 37.0017 31.5181 37.2 31.9498 37.3167C32.3814 37.4333 32.8248 37.4917 33.3031 37.4917C33.7231 37.4917 34.0964 37.445 34.4348 37.34C34.7731 37.2467 35.0414 37.095 35.2281 36.8967C35.4264 36.6983 35.5198 36.4533 35.5198 36.1617C35.5198 35.8817 35.4381 35.66 35.2748 35.485C35.1114 35.3217 34.9014 35.1817 34.6331 35.0883C34.3648 34.995 34.0848 34.9017 33.7698 34.82C33.1514 34.6683 32.6148 34.54 32.1481 34.435C31.6814 34.33 31.2614 34.225 30.8881 34.1083C30.5148 33.9917 30.1531 33.875 29.8148 33.735C29.0331 33.385 28.4031 32.9183 27.9481 32.335C27.4814 31.7517 27.2598 30.9 27.2598 29.78C27.2598 28.8933 27.4581 28.1583 27.8431 27.5633C28.2398 26.9683 28.7531 26.5017 29.3948 26.1517C30.0364 25.8133 30.7248 25.6033 31.4481 25.5333V22.5117H34.5164V25.58C35.2864 25.6733 35.9748 25.9183 36.5698 26.315C37.1764 26.7117 37.6548 27.225 38.0164 27.855C38.3781 28.4967 38.5648 29.2433 38.5881 30.1183H35.2631C35.2164 29.7683 35.0881 29.4767 34.8781 29.2317C34.6564 28.9983 34.3648 28.8117 34.0031 28.6717C33.6414 28.5433 33.2214 28.4733 32.7431 28.4733C32.3931 28.4733 32.0548 28.5083 31.7281 28.59C31.4014 28.6717 31.1331 28.8 30.9348 28.975C30.7364 29.1617 30.6314 29.4067 30.6314 29.7333C30.6314 29.9667 30.7014 30.1767 30.8414 30.3633C30.9814 30.55 31.1798 30.7017 31.4248 30.8183C31.6814 30.935 31.9731 31.0517 32.3114 31.145C32.6614 31.2617 33.0581 31.3667 33.5131 31.46C33.9564 31.5533 34.3648 31.6583 34.7264 31.7517C35.5664 31.9617 36.3014 32.2067 36.9314 32.475C37.5614 32.7433 38.0514 33.14 38.4014 33.6533C38.7514 34.1667 38.9264 34.8783 38.9264 35.7883C38.9264 36.7683 38.7281 37.585 38.3314 38.25C37.9348 38.9033 37.3981 39.4167 36.7098 39.7783C36.0331 40.14 35.2748 40.3733 34.4348 40.4667V43.4533H31.3431V40.4083C30.5848 40.2567 29.8614 39.9883 29.2081 39.6033ZM52.7514 37.585C49.6014 51.2583 33.4898 53.09 33.4898 53.09L33.3264 57.9433L24.1331 51.1183L33.4548 44.69V48.89C45.5298 46.9183 47.8981 37.4683 47.8981 37.4683C50.5231 28.275 42.5198 21.0533 42.5198 21.0533L46.3231 18.685C55.1548 26.07 52.7514 37.585 52.7514 37.585Z" fill="white"/>
<path d="M11.4276 20.6564L10.6576 20.0381C9.4443 22.1148 8.51096 24.3664 7.9043 26.7581H9.3743L11.4276 20.6564Z" fill="white"/>
<path d="M11.2301 45.7397L6.1084 51.9114L13.8551 59.7864L20.5517 54.8981C16.8067 52.6931 13.4584 49.4614 11.2301 45.7397Z" fill="white"/>
</svg>
