<svg width="76" height="60" viewBox="0 0 76 60" fill="none" xmlns="http://www.w3.org/2000/svg">
<path d="M8.262 54.383C4.284 54.009 0.986 50.932 0.238 47.379C0.0850003 46.682 0 45.985 0 45.271C0 33.269 0 21.267 0 9.265C0 4.675 3.077 0.986 7.548 0.153C8.279 0.0170003 9.01 0 9.758 0C25.721 0 41.701 0 57.664 0C59.823 0 61.829 0.459 63.597 1.785C65.45 3.162 66.606 4.964 67.167 7.293C65.739 7.293 64.345 7.293 62.951 7.293C62.696 7.293 62.611 7.14 62.509 6.953C61.506 5.134 59.942 4.335 57.868 4.335C41.752 4.352 25.619 4.369 9.503 4.318C6.766 4.318 4.964 6.035 4.488 7.854C4.352 8.398 4.284 8.959 4.284 9.503C4.284 21.335 4.284 33.15 4.284 44.982C4.284 47.634 5.474 49.198 8.262 50.133C8.262 50.813 8.262 51.51 8.262 52.224C8.262 52.921 8.262 53.635 8.262 54.383Z" fill="white"/>
<path d="M73.3382 9.85995C72.1822 8.95895 70.8732 8.72095 69.4452 8.72095C51.6632 8.73795 33.8812 8.72095 16.0992 8.73795C15.7252 8.73795 15.3682 8.75495 14.9942 8.77195C13.9742 8.83995 13.0732 9.19695 12.2742 9.80895C10.6932 11.0159 10.1152 12.6649 10.1152 14.6199C10.1322 27.6759 10.1322 40.7319 10.1322 53.805C10.1322 54.111 10.1322 54.4339 10.1492 54.7399C10.2002 55.811 10.5912 56.7799 11.2542 57.6129C12.4442 59.1259 14.0252 59.704 15.9292 59.704C24.8542 59.687 33.7962 59.6869 42.7212 59.6869C51.5612 59.6869 60.4182 59.6869 69.2582 59.6869C69.6492 59.6869 70.0572 59.6699 70.4482 59.6529C71.5022 59.6189 72.4202 59.2279 73.2532 58.6159C74.8342 57.4259 75.4292 55.7939 75.4292 53.8899C75.4292 40.749 75.4292 27.6079 75.4292 14.4499C75.4292 14.3649 75.4292 14.2799 75.4292 14.1949C75.3612 12.4439 74.7492 10.9649 73.3382 9.85995ZM48.8922 48.6539C48.8412 50.0649 47.9402 50.9829 46.5292 50.9829C38.7772 50.9999 31.0422 50.9829 23.2902 50.9829C22.0832 50.9829 21.0802 50.2519 20.9782 49.1639C20.7742 47.124 20.7742 45.0839 21.8962 43.2479C23.1372 41.2079 24.9392 40.0349 27.3192 39.7969C28.0502 39.7289 28.7812 39.7629 29.5292 39.7459C30.1922 39.7119 30.8212 39.5759 31.2122 38.9469C31.6372 38.2499 31.6372 37.6549 31.0252 37.0259C30.0222 35.9379 29.2232 34.7139 28.5772 33.3539C27.7102 33.4559 27.2342 32.9119 26.8432 32.2659C25.9592 30.8549 25.7722 29.3249 26.1292 27.7099C26.2822 27.0299 26.7582 26.7579 27.4212 26.7239C27.4552 25.3469 27.5572 24.0379 27.8802 22.7289C28.7132 19.4649 30.5492 17.8329 33.8982 17.4759C35.6152 17.3059 37.2812 17.4929 38.8282 18.3599C40.4262 19.2609 41.2932 20.7229 41.8032 22.4059C42.2282 23.7829 42.3982 25.2109 42.4152 26.7069C42.7892 26.7919 43.2142 26.7239 43.5032 27.0639C43.7922 27.4039 43.8602 27.8289 43.9112 28.2539C44.1152 29.8009 43.8432 31.2289 42.9252 32.5209C42.4322 33.2179 42.0922 33.3709 41.2762 33.3029C40.6642 34.6629 39.8482 35.9039 38.8452 37.0259C37.9102 38.0629 38.4202 39.4059 39.8142 39.6949C40.4262 39.8309 41.0552 39.7629 41.6672 39.7629C44.0472 39.7799 46.0022 40.6639 47.4642 42.5509C48.2802 43.6049 48.7562 44.7949 48.8582 46.1209C48.9092 46.9539 48.9262 47.8039 48.8922 48.6539ZM64.6002 46.1549C64.5662 47.1409 64.0392 47.7019 63.0532 47.8549C62.8832 47.8889 62.7132 47.889 62.5432 47.889C58.8712 47.889 55.1992 47.889 51.5102 47.889C51.3402 47.889 51.1702 47.9229 50.9492 47.7529C50.9832 45.7979 50.6942 43.8429 49.5892 42.0919C49.8782 41.9049 50.0992 41.9729 50.3202 41.9729C54.3662 41.9729 58.4122 41.9729 62.4412 41.9729C62.9852 41.9729 63.5122 41.9729 63.9712 42.3639C64.3622 42.7039 64.5662 43.1119 64.5832 43.6219C64.6172 44.4549 64.6342 45.3049 64.6002 46.1549ZM64.6002 35.4449C64.5662 36.4139 63.9542 37.0089 62.9852 37.0769C62.6282 37.1109 62.2542 37.0939 61.8802 37.0939C55.7262 37.0939 49.5722 37.0939 43.4012 37.0939C43.0952 37.0939 42.7892 37.0939 42.3812 37.0939C42.3812 36.7369 42.3982 36.4819 42.3812 36.2269C42.3132 35.6149 42.5342 35.2919 43.1122 35.0029C44.2852 34.4249 44.8972 33.3199 45.3902 32.1639C45.5262 31.8579 45.6282 31.5349 45.7302 31.2459C45.9512 31.1099 46.1552 31.1609 46.3422 31.1609C51.6802 31.1609 57.0182 31.1609 62.3562 31.1609C62.6282 31.1609 62.9172 31.1609 63.1892 31.2289C64.0392 31.4159 64.5152 31.9429 64.5492 32.8099C64.6342 33.6939 64.6342 34.5779 64.6002 35.4449ZM64.6002 24.6669C64.5662 25.6189 64.0052 26.1629 63.0702 26.2819C62.8152 26.3159 62.5602 26.3159 62.3052 26.3159C56.9332 26.3159 51.5612 26.3159 46.2062 26.3159C45.9002 26.3159 45.4752 26.4689 45.3222 26.1799C45.0502 25.6699 44.4212 25.4489 44.3532 24.8369C44.1662 23.3579 43.8602 21.8959 43.2822 20.5189C43.6052 20.3489 43.8942 20.4169 44.1662 20.4169C50.2182 20.4169 56.2532 20.4169 62.3052 20.4169C62.5602 20.4169 62.8152 20.4169 63.0702 20.4509C64.0052 20.5529 64.5662 21.1139 64.6002 22.0489C64.6342 22.9159 64.6342 23.7829 64.6002 24.6669Z" fill="white"/>
</svg>
