<svg width="63" height="59" viewBox="0 0 63 59" fill="none" xmlns="http://www.w3.org/2000/svg">
<path d="M0.015625 11.3153C21.0565 11.3153 41.9747 11.3153 63.0002 11.3153C63.0002 11.7027 63.0002 12.0417 63.0002 12.3645C63.0002 26.6178 63.0002 40.871 63.0002 55.1242C63.0002 57.5294 61.8807 58.74 59.5957 58.74C40.9319 58.74 22.268 58.74 3.60423 58.74C3.11348 58.74 2.62273 58.74 2.14732 58.6109C0.981788 58.3203 0.122976 57.1742 0.0309607 55.8506C0.0156248 55.6246 0.015625 55.3986 0.015625 55.1565C0.015625 41.0163 0.015625 26.876 0.015625 12.7358C0.015625 12.2838 0.015625 11.8318 0.015625 11.3153ZM45.7167 15.2055C32.8652 15.2055 20.0443 15.2055 7.1775 15.2055C7.1775 16.1094 7.1775 16.9327 7.1775 17.772C7.1775 18.5953 7.1775 19.4185 7.1775 20.2579C20.0903 20.2579 32.8805 20.2579 45.7167 20.2579C45.7167 18.5468 45.7167 16.9004 45.7167 15.2055ZM55.777 15.1893C52.9706 15.1893 50.2714 15.1893 47.5416 15.1893C47.5416 16.9165 47.5416 18.5791 47.5416 20.2579C50.3174 20.2579 53.0319 20.2579 55.777 20.2579C55.777 18.5468 55.777 16.9004 55.777 15.1893ZM8.48105 28.3611C13.9713 28.3611 27.3289 28.3611 32.8192 28.3611C38.4168 28.3611 44.0297 28.3611 49.6273 28.3611C50.0721 28.3611 50.6242 28.5064 50.7162 27.7961C50.7775 27.3764 50.4401 27.1827 49.658 27.1827C38.5088 27.1827 19.4922 27.1827 8.34303 27.1827L7.86762 27.1989C7.86762 27.1989 7.20817 27.1989 7.20817 27.6508C7.20817 27.6508 6.99347 28.3449 7.86762 28.3449L8.48105 28.3611ZM7.66825 44.632C18.8175 44.632 38.4628 44.6643 49.612 44.6643C50.4401 44.6643 50.8082 44.4706 50.7468 44.0509C50.6395 43.3568 50.0874 43.5021 49.6427 43.5021C44.0757 43.5021 38.4934 43.5021 32.9265 43.5021C27.3596 43.5021 13.2505 43.5021 7.68359 43.5021C7.68359 43.5021 7.02414 43.5021 7.02414 43.9541C7.0088 43.9541 6.7941 44.632 7.66825 44.632ZM7.68359 52.7998C13.2505 52.7998 27.3289 52.7998 32.8958 52.7998C38.4474 52.7998 43.9837 52.7998 49.5353 52.7998C49.7807 52.7998 50.0567 52.8482 50.2561 52.7675C50.4401 52.6868 50.6855 52.4447 50.7008 52.251C50.7162 52.0573 50.5015 51.7829 50.3174 51.686C50.1181 51.573 49.842 51.6214 49.5966 51.6214C38.4474 51.6214 18.8021 51.6214 7.66825 51.6214C7.66825 51.6214 7.0088 51.5246 7.0088 52.2187C7.0088 52.2026 7.00881 52.8967 7.68359 52.7998ZM7.83695 36.4966C13.3579 36.4966 27.3902 36.4966 32.9112 36.4966C38.4934 36.4966 44.0604 36.4966 49.6427 36.4966C49.8114 36.4966 49.9647 36.4966 50.1334 36.4966C50.4708 36.4804 50.7315 36.319 50.7315 35.9477C50.7468 35.5603 50.4861 35.3989 50.1487 35.3666C49.9647 35.3505 49.7653 35.3505 49.5813 35.3505C38.4628 35.3505 18.8328 35.3505 7.69892 35.3505C7.69892 35.3505 7.0088 35.2375 7.0088 35.9155C7.0088 35.9155 7.00881 36.6096 7.83695 36.4966ZM1.0738 33.8332C1.05847 34.9469 1.91728 35.8832 2.96012 35.8993C4.00296 35.9155 4.89245 34.9954 4.90778 33.8977C4.92312 32.8001 4.04897 31.8639 3.00613 31.8316C1.97862 31.7993 1.08914 32.7355 1.0738 33.8332ZM2.56139 54.2364C3.6349 54.2364 4.49371 53.3325 4.47838 52.2187C4.47838 51.0888 3.61957 50.201 2.56139 50.201C1.50321 50.201 0.644397 51.1049 0.644397 52.2187C0.629062 53.3163 1.50321 54.2364 2.56139 54.2364ZM3.38953 29.7977C4.44771 29.8138 5.32185 28.9422 5.35252 27.8123C5.3832 26.7146 4.53972 25.7784 3.46621 25.7461C2.40803 25.7138 1.53388 26.6016 1.50321 27.7154C1.48787 28.8453 2.33135 29.7654 3.38953 29.7977ZM2.99079 46.0848C4.06431 46.0848 4.92312 45.197 4.92312 44.0832C4.92312 42.9856 4.06431 42.0655 3.00613 42.0493C1.94795 42.0493 1.08914 42.9371 1.0738 44.0509C1.0738 45.1809 1.91728 46.0848 2.99079 46.0848Z" fill="white"/>
<path d="M62.9693 10.0402C41.9591 10.0402 21.0562 10.0402 0.0460082 10.0402C0.0306723 9.73352 0 9.42683 0 9.13627C0 7.27996 0 5.40751 0 3.5512C0 1.17835 1.11952 0 3.34323 0C13.1275 0 22.9272 0 32.7115 0C41.6524 0 50.6085 0 59.5494 0C61.8344 0 62.9386 1.17835 62.9539 3.58349C62.9539 5.42365 62.9539 7.24768 62.9539 9.08785C62.9693 9.3784 62.9693 9.6851 62.9693 10.0402ZM47.9401 5.29452C47.9401 4.439 47.2653 3.72876 46.4372 3.71262C45.6244 3.71262 44.9342 4.42286 44.9342 5.27838C44.9342 6.1339 45.609 6.84414 46.4372 6.84414C47.2806 6.86028 47.9401 6.16618 47.9401 5.29452ZM51.8814 3.71262C51.0533 3.69648 50.3632 4.39058 50.3478 5.26224C50.3325 6.11775 50.9919 6.84414 51.8201 6.86028C52.6482 6.87642 53.3383 6.19846 53.3537 5.3268C53.3843 4.48743 52.6942 3.72876 51.8814 3.71262ZM57.2337 3.71262C56.4208 3.71262 55.7461 4.439 55.7461 5.31066C55.7614 6.18232 56.4362 6.87642 57.2643 6.86028C58.0925 6.84414 58.7519 6.15004 58.7519 5.27838C58.7519 4.42286 58.0465 3.71262 57.2337 3.71262Z" fill="white"/>
<path d="M0.689859 23.7449L0.245117 54.7372L5.25996 55.6573V48.7647L5.91941 23.7449H0.689859Z" fill="white"/>
</svg>
