<svg width="28" height="28" viewBox="0 0 28 28" fill="none" xmlns="http://www.w3.org/2000/svg">
<path d="M14 27C21.1797 27 27 21.1797 27 14C27 6.8203 21.1797 1 14 1C6.8203 1 1 6.8203 1 14C1 21.1797 6.8203 27 14 27Z" stroke="white" stroke-width="1.89583" stroke-miterlimit="10"/>
<path d="M8.46191 11.3005C8.46191 10.6027 8.5826 9.97824 8.82397 9.42728C9.06534 8.87633 9.40379 8.41195 9.84193 8.03677C10.2775 7.66159 10.7996 7.37037 11.403 7.17098C12.0064 6.96896 12.6728 6.86926 13.3996 6.86926C14.0843 6.86926 14.7219 6.95584 15.3148 7.13162C15.9051 7.30741 16.4193 7.55927 16.8575 7.88722C17.293 8.2178 17.6367 8.61921 17.8859 9.09671C18.1352 9.57421 18.2585 10.1147 18.2585 10.7181C18.2585 11.2428 18.1588 11.6915 17.9568 12.0693C17.7547 12.4444 17.5029 12.7724 17.2012 13.0479C16.8995 13.3233 16.5689 13.5752 16.2147 13.8035C15.8579 14.0317 15.5299 14.2705 15.2282 14.5197C14.9265 14.769 14.6746 15.0418 14.4726 15.3357C14.2706 15.6321 14.1709 15.9863 14.1709 16.4035V16.5451H11.5709V16.2015C11.5709 15.6505 11.6653 15.1861 11.8542 14.8109C12.0431 14.4358 12.2766 14.1078 12.56 13.8323C12.8433 13.5568 13.1451 13.3129 13.4678 13.0977C13.7905 12.8826 14.0922 12.6648 14.3755 12.4418C14.6589 12.2188 14.8924 11.9748 15.0813 11.7072C15.2702 11.4396 15.3646 11.109 15.3646 10.7207C15.3646 10.1829 15.1967 9.74212 14.8609 9.40105C14.5251 9.05736 14.0135 8.88682 13.3287 8.88682C12.7515 8.88682 12.2504 9.07047 11.828 9.4404C11.4056 9.81033 11.1931 10.4321 11.1931 11.3058H8.46191V11.3005ZM11.466 18.9169C11.466 18.4866 11.6181 18.1219 11.9198 17.8176C12.2216 17.5133 12.5889 17.3637 13.0191 17.3637C13.4494 17.3637 13.8141 17.5159 14.1184 17.8176C14.4228 18.1193 14.5723 18.4866 14.5723 18.9169C14.5723 19.3472 14.4201 19.7118 14.1184 20.0162C13.8167 20.3205 13.4494 20.4701 13.0191 20.4701C12.5889 20.4701 12.2242 20.3179 11.9198 20.0162C11.6155 19.7145 11.466 19.3472 11.466 18.9169Z" fill="white"/>
</svg>
