<svg width="48" height="74" viewBox="0 0 48 74" fill="none" xmlns="http://www.w3.org/2000/svg">
<path d="M0.507812 60.4391C0.507812 60.4391 0.611813 52.5741 10.3098 54.8361C13.1438 51.4561 14.9638 51.0141 18.6688 52.8211C19.9818 49.8571 20.7618 46.7501 21.0998 43.5521C21.1908 42.7461 20.7358 41.8881 20.4368 40.6401C19.1498 42.1481 18.1488 43.3441 17.1348 44.5271C16.2638 45.5541 15.4318 46.6331 14.4958 47.6081C14.1578 47.9721 13.5078 48.3491 13.1178 48.2581C12.7538 48.1671 12.3378 47.4911 12.2728 47.0231C11.8048 43.9681 11.4018 40.8871 10.9988 37.8191C10.8428 36.6491 10.8038 35.4531 10.5698 34.2961C10.3748 33.2951 10.7518 32.7101 11.4928 32.1511C12.7538 31.2021 13.9498 30.1751 15.0288 29.3041C14.7948 25.9761 14.3138 22.7781 14.4178 19.6061C14.6518 12.7031 17.3818 6.72314 22.0098 1.64014C23.7128 -0.231864 24.5058 -0.192864 26.2738 1.73114C30.0048 5.76114 32.2928 10.5451 33.3328 15.9141C34.0868 19.7751 33.8918 23.6621 33.0728 27.4971C32.8128 28.7061 33.0338 29.5121 34.0608 30.2141C35.0358 30.8771 35.9718 31.6311 36.8168 32.4501C37.2068 32.8271 37.5838 33.5161 37.5318 33.9971C37.0118 38.3001 36.4268 42.5901 35.7898 46.8801C35.7118 47.4131 35.6858 47.9981 34.9708 48.3881C34.0868 48.6091 33.7488 47.8811 33.3588 47.4261C31.4348 45.2291 29.5888 42.9671 27.7038 40.7181C26.4558 42.0961 26.4168 43.5651 26.8458 45.1641C27.5478 47.7511 28.1588 50.3641 28.8608 53.1591C30.5898 52.1841 32.0328 51.5211 33.7618 51.8981C35.4908 52.2751 36.6738 53.2891 37.6228 54.8231C37.6228 54.8231 46.5408 52.2231 47.5418 60.4391H0.507812ZM27.9508 16.0571C27.9508 13.9121 26.2738 12.1961 24.1288 12.1701C22.0488 12.1441 20.2418 13.8861 20.1898 15.9791C20.1378 18.1631 21.9188 19.9311 24.1418 19.9051C26.3258 19.8791 27.9508 18.2411 27.9508 16.0571Z" fill="white"/>
<path d="M0.507794 60.4393C0.507794 60.4393 -0.116206 68.3433 9.80279 65.2623C9.80279 65.2623 11.6228 73.2053 19.0978 68.6683C19.0978 68.6683 19.0978 73.9593 24.0508 73.9073C24.0508 73.9073 29.0948 74.5313 29.5238 69.1233C29.5238 69.1233 37.4668 73.9073 38.1428 65.5093C38.1428 65.5093 47.5678 69.3573 47.5678 60.4523L42.6798 57.1113H7.77479L0.507794 60.4393Z" fill="white"/>
</svg>
