<svg width="73" height="62" viewBox="0 0 73 62" fill="none" xmlns="http://www.w3.org/2000/svg">
<path d="M1.6543 41.1516C1.9259 41.1269 2.19751 41.0775 2.46911 41.0775C25.5309 41.0775 48.5927 41.0775 71.6422 41.0775C71.9138 41.0775 72.1854 41.1269 72.457 41.1516C72.457 42.4849 72.457 43.8306 72.457 45.1639C71.1236 45.1763 69.7903 45.201 68.457 45.2133C66.9138 45.2257 65.3705 45.2257 63.8273 45.2133C63.3705 45.201 63.1977 45.3738 63.2224 45.8183C63.2471 46.1146 63.2224 46.4232 63.2224 46.7195C63.173 50.164 60.494 52.8306 57.0619 52.8553C56.6915 52.8553 56.3211 52.8677 55.9508 52.8677C54.9631 52.8677 54.3088 53.3492 53.9384 54.2627C53.7903 54.6208 53.6421 54.9911 53.4816 55.3492C52.3582 57.9418 49.5433 59.4479 46.7532 58.8924C46.0125 58.7442 45.2964 58.4603 44.605 58.1763C43.6174 57.7689 42.7655 57.9171 42.0248 58.6825C41.7655 58.9418 41.5063 59.201 41.247 59.4603C38.9384 61.7442 35.0865 61.7689 32.7408 59.522C32.4075 59.201 32.0988 58.8677 31.7532 58.559C31.0741 57.9418 30.3087 57.7813 29.4569 58.1269C29.0124 58.3121 28.568 58.5097 28.1112 58.6702C25.0371 59.7442 21.7161 58.2751 20.4198 55.2874C20.2593 54.9294 20.1111 54.5714 19.9507 54.2134C19.5432 53.3368 18.8642 52.88 17.8889 52.8677C17.3827 52.8677 16.8766 52.8553 16.3704 52.8183C14.9877 52.7195 13.7901 52.1887 12.7654 51.2627C11.4321 50.0529 10.7531 48.5467 10.7161 46.7442C10.7037 46.2504 10.6914 45.7565 10.679 45.2257C10.3086 45.2257 10.0494 45.2257 9.80247 45.2257C7.82716 45.2257 5.83949 45.2257 3.86418 45.2257C3.12344 45.2257 2.39504 45.201 1.6543 45.1763C1.6543 43.8183 1.6543 42.4849 1.6543 41.1516Z" fill="white"/>
<path d="M72.469 19.8922C72.2221 19.9293 71.9752 20.0034 71.7282 20.0034C48.6171 20.0034 25.5059 20.0034 2.38234 20.0034C2.13543 20.0034 1.88852 19.9293 1.6416 19.8922C1.6416 18.5589 1.6416 17.2132 1.6416 15.8799C4.62927 15.8799 7.61693 15.8799 10.7034 15.8799C10.7034 15.275 10.691 14.7688 10.7034 14.2626C10.8021 11.3367 12.7527 8.96629 15.6046 8.38604C16.3453 8.23789 17.1108 8.26258 17.8762 8.23789C18.8762 8.2132 19.5923 7.7811 19.975 6.84283C20.1231 6.4848 20.2836 6.12678 20.4318 5.76875C21.296 3.76874 22.8639 2.64528 24.9503 2.17615C26.4071 1.84281 27.7775 2.22553 29.0985 2.81812C30.4195 3.39837 31.0368 3.25022 32.0738 2.23788C32.5306 1.79343 32.9874 1.31195 33.5182 0.966266C35.938 -0.60164 39.3701 -0.218922 41.4195 1.80578C41.6664 2.05269 41.901 2.2996 42.1602 2.53417C42.8393 3.15146 43.6047 3.31195 44.4565 2.96627C44.901 2.79343 45.3454 2.58356 45.8022 2.42306C48.8763 1.34898 52.2097 2.80578 53.4936 5.7811C53.6541 6.13912 53.8023 6.49715 53.9627 6.85517C54.3578 7.74406 55.0615 8.17616 56.0245 8.22555C56.4442 8.23789 56.8516 8.23789 57.2714 8.23789C58.506 8.25024 59.6294 8.6453 60.6171 9.36135C62.3825 10.6453 63.2467 12.3984 63.2097 14.5836C63.2097 14.991 63.2097 15.3984 63.2097 15.8675C66.3702 15.8675 69.4072 15.8675 72.4443 15.8675C72.469 17.2132 72.469 18.5589 72.469 19.8922Z" fill="white"/>
<path d="M1.39597 38V23.8807H7.99693C8.6218 23.8807 9.19348 23.9472 9.71199 24.0801C10.2438 24.1998 10.7025 24.4059 11.088 24.6984C11.4869 24.9776 11.7993 25.3565 12.0253 25.8351C12.2513 26.3004 12.3643 26.892 12.3643 27.61C12.3643 28.1551 12.238 28.6736 11.9854 29.1655C11.7328 29.6574 11.3739 30.0363 10.9085 30.3022C11.5334 30.5415 12.032 30.9337 12.4042 31.4788C12.7898 32.0239 12.9826 32.7352 12.9826 33.6127C12.9826 34.4369 12.823 35.1283 12.5039 35.6867C12.1981 36.2451 11.7727 36.6971 11.2276 37.0428C10.6958 37.3884 10.071 37.6344 9.35302 37.7806C8.63509 37.9269 7.87063 38 7.05964 38H1.39597ZM4.62666 35.0286H7.53826C7.87063 35.0286 8.16977 35.002 8.43567 34.9488C8.71486 34.8823 8.94753 34.7959 9.13366 34.6895C9.33308 34.5699 9.47933 34.417 9.57239 34.2309C9.67875 34.0314 9.73193 33.8054 9.73193 33.5528C9.73193 33.2869 9.6854 33.0676 9.59233 32.8947C9.51256 32.7219 9.38626 32.5823 9.21343 32.4759C9.04059 32.3563 8.83452 32.2765 8.59521 32.2366C8.3559 32.1834 8.08335 32.1569 7.77757 32.1569H4.62666V35.0286ZM4.62666 29.5045H7.19924C7.51831 29.5045 7.79751 29.4713 8.03682 29.4048C8.28942 29.3383 8.4955 29.2453 8.65504 29.1256C8.81458 28.9926 8.93423 28.8398 9.014 28.6669C9.10707 28.4808 9.1536 28.2681 9.1536 28.0288C9.1536 27.7097 9.07383 27.4704 8.91429 27.3108C8.76804 27.138 8.55532 27.025 8.27613 26.9718C8.01023 26.9053 7.6978 26.8721 7.33883 26.8721H4.62666V29.5045ZM15.0485 38V23.8807H20.8717C21.5364 23.8807 22.1945 23.9472 22.846 24.0801C23.5107 24.1998 24.1156 24.4258 24.6607 24.7582C25.2058 25.0906 25.6379 25.5625 25.957 26.1741C26.2894 26.7724 26.4556 27.5435 26.4556 28.4874C26.4556 29.1256 26.3492 29.7172 26.1365 30.2623C25.9238 30.8074 25.6047 31.2794 25.1792 31.6782C24.7671 32.0771 24.242 32.3895 23.6038 32.6155L26.8145 38H23.1451L20.413 33.134H18.2792V38H15.0485ZM18.2792 30.2823H20.772C21.1575 30.2823 21.4965 30.249 21.789 30.1825C22.0948 30.1028 22.3541 29.9964 22.5668 29.8635C22.7795 29.7172 22.939 29.5311 23.0454 29.3051C23.1651 29.0791 23.2315 28.8065 23.2448 28.4874C23.2448 28.0487 23.1385 27.7163 22.9257 27.4903C22.7263 27.2643 22.4538 27.1048 22.1081 27.0117C21.7624 26.9186 21.3636 26.8721 20.9116 26.8721H18.2792V30.2823ZM27.5563 38L33.1402 23.8807H36.5703L42.0944 38H38.6044L37.8267 35.8063H31.824L31.0263 38H27.5563ZM32.8411 32.8748H36.8096L34.8552 27.4105L32.8411 32.8748ZM43.4626 38V23.8807H46.5936L52.8356 32.6953V23.8807H56.0862V38H53.035L46.6933 29.2851V38H43.4626ZM58.9258 38V23.8807H64.3502C65.8259 23.8807 67.0956 24.1533 68.1592 24.6984C69.2228 25.2435 70.0404 26.0412 70.6121 27.0915C71.1971 28.1418 71.4896 29.4447 71.4896 31.0002C71.4896 32.5025 71.2104 33.7788 70.652 34.8291C70.0936 35.8662 69.2826 36.6572 68.219 37.2023C67.1687 37.7341 65.8857 38 64.3701 38H58.9258ZM62.1565 35.0286H64.3901C65.334 35.0286 66.0785 34.8557 66.6236 34.5101C67.182 34.1644 67.5809 33.6858 67.8202 33.0742C68.0728 32.4626 68.1991 31.758 68.1991 30.9603C68.1991 30.1892 68.0794 29.4979 67.8401 28.8863C67.6008 28.2614 67.1953 27.7695 66.6236 27.4105C66.0652 27.0516 65.2875 26.8721 64.2903 26.8721H62.1565V35.0286Z" fill="white"/>
</svg>
