<svg width="58" height="72" viewBox="0 0 58 72" fill="none" xmlns="http://www.w3.org/2000/svg">
<path d="M19.4051 42.441C19.4051 37.5039 19.4051 30.1512 19.4051 25.0148C15.8284 25.0148 12.4393 25.0148 8.40527 25.0148C15.1834 16.7474 21.5628 8.93726 28.1885 0.833984C34.7087 8.80826 41.135 16.6535 47.8897 24.921C43.9846 24.921 40.6073 24.921 36.9954 24.921C36.9954 30.0574 36.9954 37.3984 36.9954 42.4527C31.7887 38.9463 24.9871 38.2427 19.4051 42.441Z" fill="white"/>
<path d="M6.18272 62.3804V46.6987H0.196723V42.4832H16.7777V46.6987H10.7355V62.3804H6.18272ZM27.7812 62.6052C25.739 62.6052 23.9685 62.1836 22.4697 61.3405C20.9896 60.4787 19.8467 59.289 19.0411 57.7714C18.2354 56.2351 17.8326 54.4646 17.8326 52.4599C17.8326 50.399 18.2448 48.6098 19.0692 47.0922C19.9123 45.5559 21.0832 44.3662 22.5821 43.5231C24.0809 42.6612 25.8514 42.2303 27.8936 42.2303C29.8983 42.2303 31.6407 42.6519 33.1208 43.495C34.6197 44.3381 35.7813 45.5184 36.6056 47.036C37.4487 48.5348 37.8703 50.3053 37.8703 52.3475C37.8703 54.3522 37.4581 56.1321 36.6337 57.6871C35.8094 59.2234 34.6384 60.4319 33.1208 61.3124C31.622 62.1743 29.8421 62.6052 27.7812 62.6052ZM27.8655 58.3054C29.1395 58.3054 30.17 58.015 30.9569 57.4342C31.7438 56.8534 32.3152 56.1133 32.6712 55.214C33.0271 54.3147 33.2051 53.3967 33.2051 52.4599C33.2051 51.7667 33.1021 51.0735 32.896 50.3803C32.7086 49.6871 32.3995 49.05 31.9686 48.4692C31.5564 47.8884 31.0131 47.4201 30.3386 47.0641C29.6641 46.7081 28.8304 46.5301 27.8374 46.5301C26.5821 46.5301 25.561 46.8205 24.7741 47.4013C23.9873 47.9634 23.4065 48.6941 23.0317 49.5934C22.6758 50.4927 22.4978 51.4388 22.4978 52.4318C22.4978 53.4248 22.6851 54.3709 23.0598 55.2702C23.4346 56.1695 24.0154 56.9002 24.8022 57.4623C25.6079 58.0244 26.629 58.3054 27.8655 58.3054ZM40.7746 62.3804V42.4832H48.8402C50.3765 42.4832 51.7161 42.7081 52.859 43.1577C54.0206 43.6074 54.9199 44.3381 55.5569 45.3498C56.2127 46.3615 56.5405 47.7292 56.5405 49.4529C56.5405 51.0454 56.1939 52.3756 55.5007 53.4435C54.8075 54.5114 53.8613 55.3077 52.6623 55.8323C51.4632 56.3382 50.0955 56.5911 48.5592 56.5911H45.3273V62.3804H40.7746ZM45.3273 52.5442H48.5592C49.6271 52.5442 50.4702 52.2819 51.0885 51.7573C51.7255 51.2327 52.044 50.4646 52.044 49.4529C52.044 48.5536 51.7723 47.8697 51.229 47.4013C50.7044 46.9329 49.8332 46.6987 48.6154 46.6987H45.3273V52.5442Z" fill="white"/>
</svg>
