<svg width="72" height="57" viewBox="0 0 72 57" fill="none" xmlns="http://www.w3.org/2000/svg">
<path d="M36.3969 56.7718C32.2774 56.7461 28.1835 56.4253 24.2694 55.0264C22.3957 54.3591 20.6375 53.4608 19.2259 52.0106C18.6227 51.3946 18.3147 50.7144 18.3275 49.8161C18.3789 47.3264 18.4559 44.8496 18.8024 42.3728C19.4569 37.6629 22.1775 34.8268 26.6435 33.4921C28.2862 33.0044 29.9674 32.6323 31.6614 32.3243C32.0592 32.2473 32.2645 32.3499 32.5084 32.6451C34.305 34.7626 38.4502 34.7626 40.2982 32.6579C40.4779 32.4398 40.619 32.2088 40.9784 32.2858C43.4167 32.7734 45.855 33.2483 48.1522 34.2749C51.6429 35.8278 53.401 38.6383 53.9785 42.3086C54.3892 44.9523 54.4662 47.6216 54.4534 50.2909C54.4534 50.9839 54.0812 51.4973 53.632 51.9721C52.1947 53.4864 50.3852 54.3848 48.4602 55.0649C44.546 56.4253 40.4907 56.7589 36.3969 56.7718Z" fill="white"/>
<path d="M46.6253 18.4386C46.7152 22.5838 45.7912 25.7793 43.4298 28.4486C39.259 33.1456 32.5087 32.7863 28.7357 27.6786C27.1828 25.5868 26.3487 23.2126 26.1947 20.6074C26.0792 18.5541 26.1562 16.5008 26.6438 14.4859C27.6577 10.3023 30.3398 7.96659 34.6133 7.56876C36.2047 7.41476 37.796 7.41476 39.3745 7.74842C43.1988 8.55692 45.5217 11.0209 46.266 15.0121C46.5227 16.3468 46.6125 17.6943 46.6253 18.4386Z" fill="white"/>
<path d="M65.3998 9.72482C65.4639 12.792 64.7453 15.6025 62.6791 17.9382C58.7521 22.3785 52.3739 21.5443 49.3838 16.2698C47.9208 13.6903 47.7411 10.9183 48.0234 8.05648C48.1133 7.15815 48.2801 6.27265 48.5624 5.42565C49.4993 2.56382 51.4884 0.933984 54.4401 0.433483C55.7876 0.202483 57.1608 0.176817 58.5083 0.38215C62.3069 0.985317 64.4758 3.15415 65.0789 6.97848C65.2329 7.88965 65.2971 8.81365 65.3998 9.72482Z" fill="white"/>
<path d="M24.8601 9.99427C24.9371 12.4069 24.4366 14.6014 23.1918 16.6034C19.5471 22.4169 12.0396 22.1859 8.84409 16.1029C6.85492 12.3428 6.98326 8.4286 8.44626 4.55293C9.24192 2.4226 10.9488 1.1521 13.1561 0.613098C15.0298 0.151098 16.9291 0.125432 18.8028 0.536098C22.1908 1.28043 24.1799 3.64176 24.6676 7.3891C24.7959 8.26176 24.8601 9.1601 24.8601 9.99427Z" fill="white"/>
<path d="M25.4886 25.5612C24.0769 24.8297 22.6781 24.4319 21.2536 24.1239C20.8301 24.034 20.5092 24.0597 20.1114 24.3035C17.4934 25.8179 14.8497 25.8307 12.2189 24.3164C11.8339 24.0982 11.5131 24.0084 11.0767 24.1239C9.98591 24.3934 8.89508 24.6757 7.82991 25.0864C5.90491 25.8435 4.74991 27.2424 4.33924 29.2572C3.92858 31.2849 3.89008 33.3382 3.86441 35.3915C3.85158 35.9947 4.35208 36.2129 4.73708 36.4695C6.18724 37.4577 7.84274 37.9069 9.54958 38.2277C12.1162 38.7154 14.7086 38.7795 17.3009 38.741C17.6089 38.741 17.9169 38.741 18.2377 38.741C18.0067 39.6137 17.7629 40.4735 17.5447 41.3334C17.4806 41.59 17.3266 41.6414 17.0956 41.6414C12.9376 41.6799 8.81808 41.4232 4.94241 39.742C3.65908 39.1902 2.49124 38.4459 1.55441 37.3935C1.22074 37.0085 0.976908 36.5722 0.989742 36.0845C1.04108 33.3639 0.989742 30.6304 1.70841 27.9739C2.42708 25.3045 4.12108 23.5079 6.64924 22.4555C8.45874 21.6984 10.3709 21.3134 12.2959 20.954C12.6424 20.8899 12.8862 20.954 13.0787 21.262C14.1182 22.956 18.2762 22.9304 19.2516 21.2492C19.4312 20.9412 19.6622 20.877 20.0216 20.9412C21.4589 21.2107 22.8834 21.5059 24.2951 21.9294C24.6672 22.0449 24.8212 22.2117 24.8469 22.6224C24.9239 23.5849 25.1549 24.5345 25.4886 25.5612Z" fill="white"/>
<path d="M54.5433 38.7282C57.4949 38.8052 60.3952 38.7924 63.2571 38.2277C65.0794 37.8684 66.8504 37.3935 68.3776 36.2385C68.7754 35.9305 68.9551 35.5969 68.9294 35.0707C68.8396 32.966 68.8524 30.8614 68.3134 28.7952C67.8771 27.114 66.8761 25.9462 65.2976 25.2275C64.0656 24.6757 62.7823 24.3549 61.4861 24.0597C61.1781 23.9827 60.9599 24.0854 60.7033 24.2394C58.0083 25.8307 55.3004 25.8435 52.6183 24.2522C52.2718 24.0469 51.9766 24.0212 51.6044 24.0982C50.1671 24.419 48.7426 24.8169 47.3438 25.5355C47.6261 24.4575 47.9084 23.4694 47.9726 22.4427C47.9982 22.1475 48.1523 22.0577 48.3833 21.9807C49.8463 21.5059 51.3606 21.1979 52.8749 20.9155C53.2343 20.8514 53.3754 21.031 53.5679 21.2492C55.0309 22.9432 58.2264 22.956 59.6766 21.2749C59.8819 21.031 60.0487 20.8514 60.4338 20.9155C62.3459 21.2749 64.2581 21.6727 66.0804 22.4042C69.2118 23.6619 70.8673 26.0489 71.3934 29.3085C71.7399 31.4774 71.7656 33.659 71.8169 35.8407C71.8298 36.5209 71.5346 37.0727 71.0726 37.5475C69.4813 39.203 67.4536 40.0372 65.3104 40.6275C62.1919 41.4874 58.9964 41.6799 55.7624 41.6285C55.4673 41.6285 55.3004 41.5515 55.2234 41.2307C55.0309 40.435 54.7871 39.6265 54.5433 38.7282Z" fill="white"/>
<path d="M36.4487 53.833C32.8425 53.8715 29.262 53.6405 25.7842 52.5754C24.3084 52.1262 22.8839 51.5487 21.716 50.4835C21.4722 50.2525 21.2412 50.0344 21.2412 49.6494C21.2669 47.0057 21.2797 44.362 21.87 41.7569C22.409 39.3699 23.8079 37.74 26.0537 36.7904C27.5295 36.1744 29.0695 35.8022 30.6224 35.4557C31.0459 35.3659 31.341 35.5584 31.6875 35.7509C34.8445 37.5989 38.0144 37.5989 41.1585 35.7252C41.428 35.5712 41.6462 35.3659 42.0055 35.43C44.123 35.8407 46.2277 36.3412 48.0885 37.4962C50.1419 38.7795 50.8605 40.8329 51.1942 43.0787C51.515 45.1962 51.5279 47.3265 51.5664 49.4569C51.5792 49.9317 51.3739 50.2269 51.053 50.5092C49.6029 51.7797 47.8319 52.3957 46.0095 52.8577C42.8654 53.679 39.6699 53.8715 36.4487 53.833Z" fill="white"/>
<path d="M29.0437 18.7082C29.1207 17.2965 29.2106 15.8977 29.6212 14.5245C30.2629 12.3813 31.6746 11.0852 33.8562 10.6232C35.5887 10.2638 37.3212 10.251 39.0537 10.6488C40.9916 11.0852 42.4546 12.176 43.0192 14.1267C44.0844 17.797 44.3154 21.4802 42.3776 24.958C41.0686 27.3193 39.1307 28.8722 36.2689 28.8337C33.8819 28.808 32.1622 27.5375 30.8532 25.651C29.4929 23.7003 28.9539 21.5572 29.0437 18.7082Z" fill="white"/>
<path d="M50.8217 10.02C50.8474 8.86496 50.9116 7.87679 51.1554 6.88862C51.6944 4.69412 52.8751 3.56479 55.0952 3.25679C56.2887 3.08996 57.4951 3.08996 58.6886 3.35946C60.2286 3.69312 61.4092 4.52729 61.8456 6.06729C62.7439 9.18579 62.9492 12.3171 61.1141 15.2046C58.7399 18.9263 54.2097 18.7851 51.9767 14.9736C51.0656 13.3951 50.7319 11.6755 50.8217 10.02Z" fill="white"/>
<path d="M21.9462 9.93012C22.036 11.5728 21.7922 13.1641 20.9837 14.6143C19.9185 16.5521 18.417 17.9253 16.0814 17.8868C13.7329 17.8611 12.2185 16.4623 11.256 14.486C9.85722 11.6241 10.0754 8.65962 11.0635 5.73362C11.4485 4.59145 12.3469 3.88562 13.4762 3.53912C15.1574 3.01295 16.8642 3.02579 18.5582 3.46212C20.0469 3.84712 20.9837 4.82245 21.4457 6.28545C21.8435 7.46612 21.9462 8.68529 21.9462 9.93012Z" fill="white"/>
</svg>
