<svg width="34" height="34" viewBox="0 0 34 34" fill="none" xmlns="http://www.w3.org/2000/svg">
<rect x="34" y="34" width="34" height="34" rx="10" transform="rotate(180 34 34)" fill="#2E7EFF"/>
<path d="M15.2137 25.1531C15.8445 24.4263 16.4267 23.6994 17.0574 22.9726C19.1436 20.486 21.2299 17.9995 23.3161 15.4746C24.6261 13.9062 25.9846 12.2995 27.2946 10.731C27.7797 10.1572 28.5075 9.88943 29.2838 10.0424C30.0601 10.1572 30.6908 10.6928 30.6908 11.3431C30.6908 11.7257 30.4967 12.1465 30.2541 12.4908C28.5075 14.5948 26.7609 16.6988 25.0143 18.7646C22.7339 21.4806 20.4536 24.1967 18.1733 26.9511C17.7852 27.4101 17.4455 27.8309 17.0574 28.29C16.3296 29.1316 14.9711 29.2464 14.0978 28.5195C12.7879 27.4101 11.5264 26.2625 10.2164 25.1149C8.32426 23.4316 6.43208 21.7867 4.5399 20.1417C3.81214 19.4914 3.81214 18.6498 4.58842 18.076C5.31618 17.5404 6.4806 17.5787 7.15984 18.1907C8.46981 19.3384 9.77979 20.486 11.0898 21.6337C12.3997 22.7813 13.6612 23.929 14.9711 25.0766C15.0682 25.0383 15.1652 25.0766 15.2137 25.1531Z" fill="white"/>
</svg>
