<svg width="34" height="59" viewBox="0 0 34 59" fill="none" xmlns="http://www.w3.org/2000/svg">
<path d="M12.7388 58.6783V50.2095C10.553 49.7825 8.55017 49.0302 6.72017 47.9627C4.89017 46.8952 3.37533 45.4515 2.196 43.6418C1.0065 41.8322 0.2745 39.6158 0 37.0132H9.52617C9.87183 38.223 10.4717 39.2092 11.3053 39.9615C12.139 40.724 13.1557 41.2628 14.3452 41.5983C15.5347 41.9338 16.7852 42.0965 18.117 42.0965C19.2862 42.0965 20.3333 41.9643 21.2687 41.6898C22.204 41.4153 22.9462 41.0087 23.485 40.4597C24.034 39.9107 24.2983 39.2295 24.2983 38.4162C24.2983 37.6333 24.0747 37.0132 23.6273 36.5455C23.18 36.0778 22.5802 35.7118 21.8482 35.4373C21.106 35.1628 20.313 34.9087 19.4488 34.6748C17.7307 34.2478 16.2362 33.8818 14.945 33.5972C13.664 33.3023 12.4948 33.0075 11.4375 32.6923C10.3903 32.3772 9.394 32.0315 8.45867 31.6452C6.27283 30.6692 4.5445 29.378 3.25333 27.7615C1.97233 26.145 1.32167 23.7762 1.32167 20.6652C1.32167 18.215 1.87067 16.1613 2.9585 14.5042C4.04633 12.847 5.49 11.5457 7.27933 10.59C9.06867 9.63434 10.98 9.06501 13.0032 8.86167V0.42334H21.533V8.95317C23.6782 9.22767 25.5793 9.90884 27.2568 10.9967C28.9343 12.0845 30.2763 13.518 31.293 15.287C32.3097 17.056 32.8282 19.1503 32.8688 21.57H23.668C23.5562 20.594 23.1902 19.7807 22.5903 19.1198C21.9905 18.459 21.1772 17.9405 20.1605 17.5745C19.1438 17.2085 17.9747 17.0153 16.653 17.0153C15.677 17.0153 14.7315 17.1272 13.8165 17.3407C12.9015 17.5542 12.1593 17.9202 11.6002 18.4183C11.0308 18.9267 10.7563 19.6282 10.7563 20.5228C10.7563 21.1837 10.9495 21.7733 11.3358 22.2715C11.7222 22.7798 12.2712 23.1967 12.9727 23.5322C13.6742 23.8677 14.4875 24.1625 15.4228 24.437C16.3988 24.7522 17.507 25.0368 18.7575 25.3113C20.008 25.5858 21.1365 25.8603 22.143 26.1247C24.4813 26.7042 26.5248 27.3853 28.2735 28.1377C30.0222 28.9002 31.3845 29.988 32.3605 31.4113C33.3365 32.8347 33.8245 34.807 33.8245 37.3385C33.8245 40.0632 33.2653 42.3405 32.1572 44.1705C31.049 46.0005 29.5443 47.4238 27.6533 48.4405C25.7623 49.4572 23.6477 50.0977 21.3093 50.3722V58.6783H12.7388Z" fill="white"/>
</svg>
