<svg width="77" height="49" viewBox="0 0 77 49" fill="none" xmlns="http://www.w3.org/2000/svg">
<path d="M58.6705 35.1426C58.552 35.0109 58.4203 34.8924 58.2755 34.7608C53.2985 38.4079 47.808 39.6193 41.8171 38.2104C38.1568 37.3546 33.6406 34.6159 32.324 32.5619C32.482 32.5488 32.6136 32.5356 32.7585 32.5356C34.7071 32.5356 36.6558 32.5224 38.6045 32.5488C38.8546 32.5488 39.1443 32.6278 39.3681 32.7463C47.4656 36.9728 57.3143 33.2993 60.5401 24.7409C64.0425 15.4584 57.9463 5.78092 48.598 4.45109C44.3056 3.84542 40.4478 4.92509 37.0245 7.57159C36.8533 7.70325 36.6163 7.82175 36.4056 7.82175C34.6676 7.83492 32.9428 7.83492 31.2048 7.83492C31.139 7.83492 31.0731 7.80859 30.9941 7.80859C35.7868 0.896087 46.4518 -2.68525 55.7211 2.38392C65.8331 7.92709 68.8483 20.8304 62.423 30.3631C62.5678 30.5211 62.7126 30.6923 62.8706 30.8503L75.1815 42.4501C75.8793 43.1611 76.2216 44.0828 76.1031 45.0834C75.9583 46.2948 75.0498 47.0584 73.5883 48.0459C72.5481 48.9018 70.6785 48.7306 69.7963 47.8616L58.6705 35.1426Z" fill="white"/>
<path d="M46.3994 31.061C40.6587 31.061 35.7476 27.0846 34.7996 21.7785C33.7067 15.6691 37.6041 9.87581 43.6871 8.59864C49.4672 7.37414 55.2079 10.4815 57.1697 15.893C59.1579 21.3571 56.6299 27.3743 51.2579 29.9418C49.6647 30.7055 47.9926 31.0741 46.3994 31.061ZM46.2151 27.032C50.2177 27.032 53.5489 23.7403 53.5752 19.7508C53.6016 15.735 50.2704 12.3906 46.2546 12.3775C42.2124 12.3775 38.8812 15.6691 38.8812 19.685C38.8812 23.7271 42.1729 27.0188 46.2151 27.032Z" fill="white"/>
<path d="M19.2363 9.3623C23.8315 9.3623 28.3872 9.3623 32.9823 9.3623C32.9823 10.4683 32.9823 11.5348 32.9823 12.6671C29.7433 12.6671 26.5043 12.6671 23.2258 12.6671C23.2258 14.3525 23.2258 15.9851 23.2258 17.6573C26.4253 17.6573 29.6117 17.6573 32.8375 17.6573C32.8375 18.7765 32.8375 19.843 32.8375 20.949C29.6248 20.949 26.4385 20.949 23.2127 20.949C23.2127 22.8581 23.2127 24.7278 23.2127 26.6765C26.4517 26.6765 29.7038 26.6765 32.9823 26.6765C32.9823 27.901 32.9823 29.0465 32.9823 30.2183C28.3872 30.2183 23.8315 30.2183 19.2363 30.2183C19.2363 23.2926 19.2363 16.3538 19.2363 9.3623Z" fill="white"/>
<path d="M0 27.8482C1.00067 26.8607 1.96183 25.939 2.93617 24.9778C3.30483 25.228 3.713 25.5176 4.13433 25.781C5.42467 26.5841 6.8335 26.8738 8.3345 26.7817C8.94017 26.7421 9.49317 26.5315 9.98033 26.1497C11.0073 25.3465 11.0863 23.9245 10.0462 23.1213C9.45367 22.6605 8.75583 22.3313 8.07117 22.0285C6.88617 21.5018 5.6485 21.0936 4.47667 20.5275C3.7525 20.1852 3.05467 19.7243 2.46217 19.1713C-0.131667 16.775 0.0526666 12.6012 2.83083 10.4155C3.84467 9.61232 5.00333 9.11198 6.2805 8.96715C8.32133 8.73015 10.3227 8.90132 12.2055 9.78348C13.0218 10.1653 13.7723 10.6657 14.4043 11.2713C13.4563 12.193 12.5215 13.1015 11.5735 14.0232C11.5998 14.0758 11.6262 14.1285 11.6525 14.1812C11.5077 14.0627 11.3628 13.9442 11.2048 13.8257C9.9935 12.8645 8.611 12.5222 7.09683 12.6933C6.37267 12.7723 5.75383 13.1015 5.293 13.6808C4.63467 14.4972 4.661 15.5637 5.451 16.2615C5.89867 16.6565 6.4385 16.9857 6.9915 17.249C7.7025 17.5913 8.453 17.8678 9.19033 18.1443C10.3622 18.5788 11.5077 19.066 12.5347 19.7901C14.773 21.3701 15.6683 24.1878 14.6808 26.6368C13.8908 28.6118 12.3635 29.8495 10.3622 30.3366C7.33383 31.0608 4.41083 30.679 1.71167 29.0332C1.11917 28.6908 0.579333 28.2563 0 27.8482Z" fill="white"/>
</svg>
