<svg width="56" height="60" viewBox="0 0 56 60" fill="none" xmlns="http://www.w3.org/2000/svg">
<path d="M37.8993 41.157C37.8993 46.8743 37.8993 52.581 37.8993 58.2983C37.8993 58.533 37.8887 58.7784 37.91 59.013C37.9633 59.5144 38.2407 59.7703 38.7527 59.813C38.8913 59.8237 39.0407 59.8237 39.1793 59.8237C43.0833 59.8237 46.9873 59.8237 50.8913 59.8237C51.9793 59.8237 52.182 59.621 52.182 58.533C52.182 46.981 52.182 35.4397 52.182 23.8877C52.182 22.789 51.9687 22.5757 50.8913 22.5757C46.9873 22.5757 43.0833 22.5757 39.1793 22.5757C38.0807 22.5757 37.8887 22.7784 37.8887 23.877C37.8993 29.6264 37.8993 35.3864 37.8993 41.157Z" fill="white"/>
<path d="M1.01367 35.2264C8.39501 30.9811 18.3897 27.3011 25.7817 23.0558C27.1043 22.2984 28.427 21.5411 29.739 20.7838C29.8883 20.6984 30.0483 20.6238 30.2403 20.5171C30.5923 21.1251 30.923 21.7011 31.2643 22.2771C31.3497 22.4264 31.4563 22.5864 31.5843 22.6824C31.979 22.9704 32.4377 22.7678 32.5977 22.2238C32.8217 21.4664 33.0137 20.6878 33.227 19.9304C33.5577 18.7251 33.8883 17.5198 34.219 16.3038C34.4217 15.5678 34.2723 15.3438 33.515 15.1304C31.6483 14.6291 29.7817 14.1171 27.9257 13.6158C27.8083 13.5838 27.6803 13.5624 27.563 13.5198C27.2537 13.4131 26.9977 13.4984 26.8057 13.7438C26.603 13.9998 26.635 14.2664 26.7843 14.5331C27.1363 15.1411 27.4883 15.7491 27.8723 16.3998C27.6697 16.5171 27.499 16.6238 27.3177 16.7304C18.6243 21.7331 9.69634 30.2344 1.01367 35.2264Z" fill="white"/>
<path d="M36.3735 59.7918C36.3735 49.7118 36.3735 39.6744 36.3735 29.6051C36.1495 29.5838 35.9681 29.5518 35.7868 29.5518C32.6935 29.5518 29.6108 29.5518 26.5175 29.5518C26.3468 29.5518 26.1761 29.5518 26.0161 29.5838C25.5681 29.6691 25.2908 29.9358 25.2695 30.4158C25.2588 30.6078 25.2588 30.7998 25.2588 30.9918C25.2588 40.1331 25.2588 49.2744 25.2588 58.4158C25.2588 58.5331 25.2588 58.6504 25.2588 58.7678C25.2801 59.5571 25.5468 59.8238 26.3575 59.8238C27.6055 59.8344 28.8535 59.8238 30.0908 59.8238C31.9361 59.8238 33.7815 59.8238 35.6268 59.8238C35.8721 59.8131 36.1068 59.8024 36.3735 59.7918Z" fill="white"/>
<path d="M23.8087 59.7918C23.8087 51.8772 23.8087 44.0265 23.8087 36.1012C23.606 36.0799 23.4034 36.0479 23.2007 36.0479C20.086 36.0479 16.9714 36.0479 13.8567 36.0479C12.918 36.0479 12.6514 36.3038 12.6514 37.2318C12.6514 44.3465 12.6514 51.4718 12.6514 58.5865C12.6514 59.5465 12.918 59.8132 13.8887 59.8132C17.0034 59.8132 20.118 59.8132 23.2327 59.8132C23.3927 59.8132 23.5634 59.8025 23.8087 59.7918Z" fill="white"/>
<path d="M11.1685 43.0022C10.9231 42.9915 10.7098 42.9702 10.4965 42.9702C7.45645 42.9702 4.40579 42.9702 1.36579 42.9702C0.29912 42.9702 0.0644531 43.2049 0.0644531 44.2822C0.0644531 49.0182 0.0644531 53.7649 0.0644531 58.5009C0.0644531 59.6315 0.256453 59.8235 1.40845 59.8235C4.42712 59.8235 7.44579 59.8235 10.4645 59.8235C10.6778 59.8235 10.8911 59.8235 11.1578 59.8235C11.1685 54.2129 11.1685 48.6555 11.1685 43.0022Z" fill="white"/>
<path d="M45.0462 0.208008C39.0516 0.208008 34.1982 5.04001 34.1982 10.992C34.1982 16.9547 39.0622 21.776 45.0462 21.776C51.0409 21.776 55.8942 16.944 55.8942 10.992C55.9049 5.04001 51.0409 0.208008 45.0462 0.208008ZM49.8356 15.1307C49.4942 15.696 49.0356 16.1333 48.4489 16.4427C47.8622 16.752 47.2222 16.9547 46.4969 17.04V19.5893H43.8516V16.9867C43.1796 16.8587 42.5609 16.624 41.9956 16.2933C41.4302 15.9627 40.9716 15.5253 40.5982 14.96C40.2356 14.4053 40.0116 13.7227 39.9262 12.9227H42.8596C42.9662 13.296 43.1476 13.5947 43.4036 13.8293C43.6596 14.064 43.9689 14.2347 44.3422 14.3307C44.7049 14.4373 45.0996 14.48 45.5049 14.48C45.8676 14.48 46.1876 14.4373 46.4756 14.352C46.7636 14.2667 46.9876 14.1387 47.1582 13.9787C47.3289 13.808 47.4142 13.6053 47.4142 13.3493C47.4142 13.1147 47.3502 12.9227 47.2116 12.7733C47.0729 12.6347 46.8916 12.5173 46.6676 12.432C46.4436 12.3467 46.1982 12.272 45.9316 12.1973C45.4089 12.0693 44.9396 11.952 44.5449 11.8667C44.1502 11.7813 43.7876 11.6853 43.4676 11.5893C43.1476 11.4933 42.8382 11.3867 42.5502 11.2693C41.8782 10.9707 41.3449 10.576 40.9502 10.0747C40.5556 9.57334 40.3529 8.84801 40.3529 7.88801C40.3529 7.13067 40.5236 6.50134 40.8542 5.98934C41.1849 5.47734 41.6329 5.08267 42.1876 4.78401C42.7422 4.48534 43.3289 4.31467 43.9476 4.25067V1.66934H46.5716V4.29334C47.2329 4.37867 47.8196 4.59201 48.3316 4.92267C48.8436 5.25334 49.2596 5.70134 49.5689 6.24534C49.8782 6.78934 50.0382 7.44001 50.0596 8.17601H47.2222C47.1902 7.87734 47.0729 7.62134 46.8916 7.41867C46.7102 7.21601 46.4542 7.05601 46.1449 6.93867C45.8356 6.82134 45.4729 6.76801 45.0676 6.76801C44.7689 6.76801 44.4809 6.80001 44.1929 6.86401C43.9156 6.92801 43.6809 7.04534 43.5102 7.19467C43.3396 7.35467 43.2542 7.56801 43.2542 7.84534C43.2542 8.04801 43.3182 8.22934 43.4356 8.38934C43.5529 8.54934 43.7236 8.67734 43.9369 8.77334C44.1502 8.88001 44.4062 8.96534 44.6942 9.05067C44.9929 9.14667 45.3342 9.23201 45.7182 9.31734C46.1022 9.40267 46.4542 9.48801 46.7636 9.57334C47.4782 9.75467 48.1076 9.95734 48.6516 10.192C49.1956 10.4267 49.6116 10.7573 49.9102 11.1947C50.2089 11.632 50.3582 12.24 50.3582 13.0187C50.3476 13.872 50.1769 14.5653 49.8356 15.1307Z" fill="white"/>
</svg>
