<svg width="63" height="64" viewBox="0 0 63 64" fill="none" xmlns="http://www.w3.org/2000/svg">
<path d="M61.0775 32.3273C61.0775 37.0801 61.2676 41.8328 61.0775 46.3954C60.6973 54.3799 55.7545 60.4634 47.7699 61.4139C36.9338 62.9348 25.9075 62.9348 15.0713 61.4139C7.27683 60.2733 2.33401 54.3799 1.76368 46.5855C1.19336 37.0801 1.19336 27.5746 1.76368 18.0692C2.33401 10.0847 7.08672 4.19129 15.0713 3.24075C25.9075 1.71988 36.9338 1.71988 47.7699 3.24075C55.7545 4.3814 60.5072 10.2748 61.0775 18.2593C61.2676 23.012 61.0775 27.7647 61.0775 32.3273Z" stroke="#FEFEFE" stroke-width="2.5" stroke-miterlimit="10"/>
<path d="M47.3896 12.9363C49.4808 12.9363 51.0016 14.4571 51.0016 16.5483C51.0016 18.6395 49.2907 20.3505 47.1995 20.3505C45.1083 20.3505 43.5874 18.6395 43.5874 16.7384C43.7775 14.4571 45.2984 12.9363 47.3896 12.9363Z" fill="#FAFAFA"/>
<path d="M31.2304 45.4449C38.58 45.4449 44.538 39.4869 44.538 32.1373C44.538 24.7877 38.58 18.8297 31.2304 18.8297C23.8809 18.8297 17.9229 24.7877 17.9229 32.1373C17.9229 39.4869 23.8809 45.4449 31.2304 45.4449Z" stroke="white" stroke-width="2.5" stroke-miterlimit="10"/>
</svg>
