<svg width="78" height="47" viewBox="0 0 78 47" fill="none" xmlns="http://www.w3.org/2000/svg">
<path d="M39.1465 0.760742C49.6138 0.760742 60.2715 0.760742 70.7389 0.760742C72.4517 0.760742 74.1646 1.33169 75.4968 2.47358C77.0193 3.8058 77.7806 5.51864 77.7806 7.4218C77.7806 14.8441 77.7806 22.2664 77.7806 29.6888C77.7806 32.5435 76.2581 34.4467 73.784 35.5886C72.8324 35.9692 72.0711 36.1595 71.1195 36.1595C64.8391 36.1595 58.5587 36.1595 52.4686 36.1595C51.7073 36.1595 50.946 36.5401 50.3751 37.1111C47.5204 39.9658 44.6656 42.8206 41.8109 45.6753C40.669 47.0075 38.7658 46.8172 37.6239 45.6753C34.7692 42.8206 31.9145 39.9658 29.25 37.1111C28.6791 36.5401 27.9178 36.1595 26.9662 36.1595C20.4955 36.1595 14.0248 36.1595 7.55401 36.1595C4.88959 36.1595 2.98643 35.0176 1.65422 32.7338C1.08327 31.5919 0.702637 30.45 0.702637 29.3081C0.702637 22.0761 0.702637 14.8441 0.702637 7.61212C0.702637 3.99611 3.36706 1.33169 6.60243 0.760742C6.98306 0.760742 7.36369 0.760742 7.74433 0.760742C18.2117 0.760742 28.6791 0.760742 39.1465 0.760742ZM56.4652 27.0243C56.4652 26.834 56.4652 26.834 56.4652 26.6437C56.2749 25.5018 55.8943 24.3599 55.7039 23.0277C55.7039 22.8374 55.7039 22.6471 55.7039 22.4568C56.4652 20.9342 56.6555 19.2214 56.2749 17.5085C55.5136 13.5119 51.7073 10.8475 47.5204 11.4184C43.1431 11.9894 40.2884 15.986 41.0496 20.3633C41.8109 25.5018 47.1397 28.3566 51.8976 26.2631C52.0879 26.2631 52.2783 26.0728 52.6589 26.2631C53.0395 26.2631 53.2298 26.4534 53.6105 26.4534C54.562 26.6437 55.5136 26.834 56.4652 27.0243ZM15.5473 14.4635C14.786 12.37 12.5022 10.8475 10.4088 11.2281C8.50559 11.6088 7.17338 12.5603 6.60243 14.4635C6.03148 16.3667 6.41211 17.8892 7.74433 19.4117C10.2184 21.8858 12.6925 24.3599 14.9763 26.834C15.357 27.2147 15.357 27.2147 15.7376 26.834C18.402 24.5502 20.8761 22.0761 23.5406 19.7923C24.8728 18.6504 25.4437 17.1279 25.0631 15.4151C24.6824 13.5119 23.3502 11.9894 21.2568 11.4184C19.3536 11.0378 17.4504 11.7991 16.3085 13.5119C15.9279 13.7022 15.7376 14.0829 15.5473 14.4635ZM29.6307 21.1245C29.25 22.2664 28.4888 23.0277 27.1566 23.0277C26.9662 23.0277 26.7759 23.0277 26.7759 23.218C26.5856 23.5987 26.7759 23.9793 27.1566 23.9793H27.3469C28.2985 23.789 29.25 23.5987 29.821 22.6471C30.7726 21.3149 30.7726 19.9827 30.3919 18.6504C30.0113 17.3182 28.6791 16.9376 27.5372 17.3182C26.3953 17.8892 26.0147 18.8408 26.205 20.173C26.3953 21.1245 27.1566 21.6955 28.1081 21.5052C28.6791 21.5052 29.0597 21.3149 29.6307 21.1245ZM34.7692 21.1245C34.3886 22.4568 33.6273 23.0277 32.2951 23.218C32.1048 23.218 31.9145 23.218 31.9145 23.4083C31.7241 23.789 31.9144 24.1696 32.2951 24.1696H32.4854C33.437 23.9793 34.3886 23.789 34.9595 22.8374C35.9111 21.5052 35.9111 20.173 35.5305 18.8408C35.1498 17.5085 33.8176 17.1279 32.6757 17.5085C31.7241 17.8892 31.3435 18.6504 31.3435 19.9827C31.3435 20.9342 32.1048 21.6955 33.0563 21.6955C33.6273 21.5052 34.1982 21.5052 34.7692 21.1245ZM61.9844 21.3149C61.9844 21.1245 61.9844 21.1245 61.9844 21.3149C61.6037 22.4568 60.8425 23.218 59.5103 23.218C59.3199 23.218 59.1296 23.218 59.1296 23.4083C58.9393 23.789 59.1296 24.1696 59.7006 24.1696H59.8909C60.8425 24.1696 61.794 23.789 62.365 22.8374C63.3166 21.5052 63.3166 20.173 62.936 18.6504C62.365 16.9376 60.4618 16.9376 59.5103 17.6989C58.749 18.2698 58.5587 19.2214 58.749 20.173C58.9393 21.1245 59.7006 21.5052 60.6522 21.5052C61.0328 21.5052 61.6037 21.3149 61.9844 21.3149ZM67.1229 21.1245C66.7423 22.2664 65.981 23.0277 64.6488 23.0277C64.4585 23.0277 64.2682 23.0277 64.2682 23.218C64.0778 23.5987 64.2682 23.9793 64.8391 23.9793H65.0294C65.981 23.9793 66.9326 23.5987 67.5035 22.6471C68.4551 21.3149 68.4551 19.9827 68.0745 18.6504C67.6938 17.1279 66.1713 16.9376 65.0294 17.5085C63.8875 18.0795 63.5069 19.0311 63.8875 20.173C64.0778 21.1245 64.8391 21.6955 65.7907 21.6955C66.1713 21.5052 66.7423 21.3149 67.1229 21.1245Z" fill="white"/>
<path d="M29.8209 19.6021C29.8209 20.1731 29.4403 20.5537 28.8693 20.744C28.2984 20.9343 27.7275 20.744 27.3468 20.3634C26.9662 19.7924 26.9662 18.8409 27.5371 18.2699C28.1081 17.8893 28.8693 17.8893 29.25 18.4602C29.4403 18.8409 29.6306 19.2215 29.8209 19.6021Z" fill="white"/>
<path d="M34.769 19.602C34.9593 20.173 34.0078 20.7439 33.4368 20.7439C32.6756 20.7439 32.2949 20.173 32.2949 19.4117C32.2949 18.4601 32.8659 17.8892 33.4368 17.8892C34.3884 17.8892 34.769 18.6504 34.769 19.602Z" fill="white"/>
<path d="M59.5106 19.4119C59.7009 19.0313 59.7009 18.6506 59.8913 18.27C60.2719 17.6991 61.2235 17.6991 61.6041 18.4603C61.9847 19.0313 61.9847 19.6022 61.7944 19.9829C61.6041 20.5538 60.8428 20.7441 60.2719 20.7441C59.7009 20.7441 59.3203 20.1732 59.3203 19.7925C59.7009 19.6022 59.7009 19.6022 59.5106 19.4119Z" fill="white"/>
<path d="M64.6489 19.4118C64.8392 19.0311 64.8392 18.6505 65.0296 18.4602C65.4102 17.8893 66.3618 17.8893 66.7424 18.6505C67.123 19.2215 67.123 19.6021 66.9327 20.173C66.7424 20.5537 66.3618 20.744 65.7908 20.9343C65.4102 20.9343 64.8392 20.9343 64.6489 20.5537C64.8392 19.9827 64.8392 19.7924 64.6489 19.4118Z" fill="white"/>
</svg>
