<svg width="55" height="64" viewBox="0 0 55 64" fill="none" xmlns="http://www.w3.org/2000/svg">
<path d="M27.5817 47.8708C23.0878 52.3648 18.9846 56.6634 14.8814 60.7666C11.3643 64.2836 7.26111 64.479 4.13486 61.5481C1.00861 58.6173 1.204 54.1233 4.52565 50.8016C8.62885 46.6984 12.9274 42.5952 17.226 38.1012C12.5367 36.5381 8.23807 35.1704 4.33025 32.8257C0.227049 30.2856 -1.14069 26.1824 1.00861 22.47C3.15791 18.7576 7.26111 17.7806 11.5597 20.1253C22.1108 26.1824 32.8573 25.987 43.4084 20.1253C47.707 17.7806 51.8102 18.7576 53.9595 22.6654C55.9134 26.1824 54.5457 30.2856 50.6378 32.6303C46.73 34.975 42.6268 36.5381 38.1328 37.9058C42.4314 42.3998 46.5346 46.503 50.6378 50.997C55.1318 55.6864 53.3733 62.3297 47.3162 63.6974C44.5807 64.2836 42.236 63.3066 40.2821 61.3527C38.1328 59.2034 35.9835 57.0541 33.8342 54.9048C31.8803 52.3648 29.9264 50.2155 27.5817 47.8708Z" fill="#FEFEFE"/>
<path d="M27.3862 0C32.6618 0 37.3512 4.29859 37.5465 9.57414C37.7419 14.8497 33.0526 19.7345 27.777 19.9299C22.5015 20.1252 17.6167 15.4359 17.6167 9.96493C17.6167 4.68938 22.1107 0.195391 27.3862 0Z" fill="white"/>
</svg>
