<svg width="47" height="59" viewBox="0 0 47 59" fill="none" xmlns="http://www.w3.org/2000/svg">
<path d="M23.3991 0C10.3141 0 0 10.9298 0 24.0149C0 37.7156 18.1651 58.1898 23.3991 58.1898C28.0173 58.1898 46.1824 37.7156 46.1824 24.0149C46.1824 10.9298 35.8683 0 23.3991 0ZM23.553 36.3302C15.3941 36.3302 9.08254 30.1725 9.08254 23.0912C9.08254 20.0124 10.0062 17.2414 11.5456 15.0863C12.0074 17.5493 14.3165 19.5506 17.0875 19.5506C20.1663 19.5506 22.6294 17.0875 22.6294 14.0087C22.6294 12.0074 21.5518 10.3141 20.0124 9.39043C21.09 9.08254 22.1676 9.08254 23.3991 9.08254C30.7883 9.08254 36.9459 15.2402 36.9459 23.0912C37.0999 30.3265 30.7883 36.3302 23.553 36.3302Z" fill="white"/>
</svg>
