<svg width="50" height="61" viewBox="0 0 50 61" fill="none" xmlns="http://www.w3.org/2000/svg">
<path d="M21.0678 41.225C19.2877 47.051 18.1548 53.0388 14.9182 58.2175C14.5945 58.703 14.2708 59.3503 13.9472 59.9976C13.6235 60.645 13.138 61.1305 12.3288 60.9686C11.5197 60.8068 11.3578 59.9976 11.3578 59.3503C10.8723 55.6281 10.5487 51.906 11.3578 48.1838C12.4907 42.5197 13.9472 36.8555 15.2418 31.1913C15.5655 30.0585 15.5655 28.9257 15.2418 27.7928C14.4327 24.8798 14.2708 21.805 15.5655 19.0539C16.5365 16.95 17.993 15.1699 20.2587 14.5225C23.6572 13.5515 26.2465 15.4935 26.5702 18.892C26.8938 21.9669 25.5992 24.5562 24.79 27.4692C24.3045 29.0875 23.819 30.7058 23.3335 32.3242C22.5243 35.8845 24.9518 39.283 28.674 39.4448C32.558 39.6067 35.471 37.6647 37.413 34.5898C40.9733 29.0875 42.1061 22.9379 40.0023 16.6264C36.9275 7.40187 24.6282 3.67971 15.7273 9.18203C8.12119 13.8752 5.69369 23.4233 10.225 31.1913C10.8723 32.1623 10.5487 36.6937 9.73952 37.6647C8.93035 38.4738 8.28302 37.6647 7.79752 37.341C3.91353 34.9135 2.13336 31.0295 1.32419 26.8218C-1.1033 14.3607 7.15019 2.70871 19.6113 0.604879C28.5122 -1.01345 36.7656 0.443047 43.4008 7.07821C53.7581 17.5974 50.1978 38.1502 36.9275 44.2998C31.2633 46.4037 25.5992 45.5945 21.0678 41.225Z" fill="#FEFEFE"/>
</svg>
