<svg width="68" height="68" viewBox="0 0 68 68" fill="none" xmlns="http://www.w3.org/2000/svg">
<path d="M63.7941 34.4955C63.6085 34.1245 63.6085 33.7536 63.7941 33.3827C65.2792 30.7863 66.5786 28.0044 67.8781 25.408C68.0637 24.8516 68.0637 24.6661 67.6924 24.4807C65.0936 22.8115 62.6803 21.1424 60.0815 19.6587C59.7102 19.4732 59.5246 19.1023 59.5246 18.7314C59.3389 15.7641 59.1533 12.6112 59.1533 9.64389C59.1533 9.08752 58.9677 9.08752 58.5964 9.08752C55.6263 8.90206 52.6561 8.7166 49.5004 8.7166C48.9435 8.7166 48.7578 8.53114 48.3866 7.97476C46.7159 5.56379 45.2308 2.96735 43.5601 0.556379C43.1888 3.31627e-07 43.0032 7.04708e-07 42.4463 0.18546C39.8475 1.66914 37.063 2.96735 34.4641 4.26557C34.0928 4.45103 33.7216 4.45103 33.3503 4.26557C30.7514 2.96735 27.9669 1.48368 25.3681 0.18546C25.1824 7.04708e-07 24.9968 0 24.8112 0C24.6255 0 24.4399 0.370919 24.4399 0.556379C22.7692 3.15281 21.0985 5.56379 19.6134 8.16022C19.4278 8.53114 19.0565 8.7166 18.4996 8.7166C15.5295 8.90206 12.3737 9.08752 9.4036 9.08752C9.03233 9.08752 8.8467 9.27298 8.8467 9.64389C8.66106 12.6112 8.47543 15.5786 8.47543 18.7314C8.47543 19.2878 8.2898 19.4732 7.91853 19.8442C5.5053 21.5133 2.90643 22.997 0.4932 24.6661C-0.0636999 25.037 -0.0636995 25.2225 0.121934 25.7789C1.42137 28.3753 2.90643 30.9717 4.20586 33.5682C4.3915 33.9391 4.3915 34.31 4.20586 34.6809C2.7208 37.2774 1.42137 40.0593 0.121934 42.6557C-0.0636995 43.2121 -0.0636988 43.3975 0.307568 43.583C2.90643 45.2521 5.31966 46.9213 7.91853 48.4049C8.2898 48.5904 8.47543 48.9613 8.47543 49.3322C8.66106 52.2996 8.8467 55.4524 8.8467 58.4197C8.8467 58.7907 9.03233 58.9761 9.4036 58.9761C12.3737 59.1616 15.3439 59.347 18.4996 59.347C19.0565 59.347 19.4278 59.5325 19.6134 60.0889C21.2841 62.4999 22.7692 65.0963 24.4399 67.5073C24.8112 68.0636 24.9968 68.0636 25.5537 67.8782C28.1526 66.58 30.7514 65.0963 33.3503 63.7981C33.9072 63.6126 34.2785 63.6126 34.8354 63.7981C37.4342 65.0963 40.0331 66.58 42.6319 67.8782C43.1888 68.0636 43.3745 68.0636 43.5601 67.6927C45.2308 65.0963 46.9015 62.6853 48.3866 60.0889C48.5722 59.718 48.9435 59.5325 49.5004 59.5325C52.4705 59.347 55.6263 59.1616 58.5964 59.1616C58.9677 59.1616 59.1533 58.9761 59.1533 58.6052C59.3389 55.6379 59.5246 52.6705 59.5246 49.5177C59.5246 48.9613 59.7102 48.7759 60.0815 48.4049C62.4947 46.9213 64.9079 45.2521 67.3212 43.7684C68.0637 43.3975 68.0637 43.0266 67.6924 42.2848C66.393 39.6883 65.0936 37.0919 63.7941 34.4955ZM47.8297 28.1898C43.1889 32.6409 38.9193 36.9064 34.0928 41.3575C32.7934 42.6557 31.494 43.9539 30.1945 45.2521C29.8233 45.623 29.2664 45.623 28.8951 45.0667C25.5537 41.7284 22.7692 38.9465 19.6134 35.7937C19.2422 35.2373 19.2422 34.8664 19.6134 34.4955C20.5416 33.5682 21.0985 33.1973 21.841 32.27C22.2123 31.899 22.5836 31.899 23.1405 32.27C25.1824 34.31 27.0388 36.3501 29.0807 38.3901C29.452 38.9465 29.8233 38.761 30.1945 38.3901C35.021 33.7536 39.4762 29.1171 44.3026 24.4807C44.8595 23.9243 45.4164 23.9243 45.7877 24.4807C46.5302 25.408 46.9015 25.7789 47.8297 26.7062C48.9435 27.448 47.8297 28.1898 47.8297 28.1898Z" fill="white"/>
</svg>
