<svg width="58" height="52" viewBox="0 0 58 52" fill="none" xmlns="http://www.w3.org/2000/svg">
<path d="M53.6089 8.47425C55.8365 8.47425 57.6422 6.66849 57.6422 4.44098C57.6422 2.21347 55.8365 0.407715 53.6089 0.407715C51.3814 0.407715 49.5757 2.21347 49.5757 4.44098C49.5757 6.66849 51.3814 8.47425 53.6089 8.47425Z" fill="#FEFEFE"/>
<path d="M36.6355 28.1364H10.9234V17.8852H36.8036C38.316 17.8852 39.3244 18.2213 39.8285 18.5574C40.3327 19.0615 40.6688 19.9018 40.6688 21.0782V24.7753C40.6688 26.1198 40.3327 26.96 39.8285 27.4642C39.3244 27.9683 38.148 28.1364 36.6355 28.1364ZM38.4841 8.30615H0V51.9999H10.9234V37.7154H31.0898L40.6688 51.9999H52.9366L42.3493 37.7154C46.2145 37.2112 48.0631 35.8668 49.4075 34.0182C50.92 32.0016 51.5922 28.9767 51.5922 24.7753V21.5823C51.5922 19.0615 51.2561 17.213 50.92 15.7005C50.4159 14.188 49.7436 12.8436 48.5673 11.6672C47.3909 10.4908 46.0465 9.81863 44.534 9.31447C42.8535 8.64226 40.8368 8.30615 38.4841 8.30615Z" fill="white"/>
</svg>
