<svg width="62" height="51" viewBox="0 0 62 51" fill="none" xmlns="http://www.w3.org/2000/svg">
<path d="M61.455 4.76075C60.6938 9.51865 60.1228 15.2281 59.1712 20.7473C57.839 28.9309 56.3165 36.9241 54.9843 45.1077C54.794 45.6787 54.794 46.2496 54.6037 47.0109C53.4618 50.6269 51.3683 51.3882 47.9426 49.8656C46.991 49.485 46.2298 48.9141 45.2782 48.3431C40.33 45.1077 35.3818 41.682 30.4335 38.4467C26.4369 35.7822 26.0563 34.0694 29.6723 30.834C34.8108 25.8858 39.9493 21.1279 44.8976 16.1797C45.6588 15.4184 47.1813 14.6572 46.2298 13.5153C45.2782 12.3734 44.3266 13.7056 43.375 14.2765C36.5237 18.8441 29.6723 23.2214 23.0112 27.789C19.0146 30.6437 14.8276 31.5953 10.2601 29.8825C7.97626 29.1212 5.69247 28.5502 3.40868 27.5987C2.26678 27.218 0.93457 26.8374 0.93457 25.3149C0.93457 23.9827 2.07647 23.2214 3.02805 22.8408C5.88279 21.5086 8.92784 20.1763 11.7826 18.8441C25.6756 12.9443 39.3784 6.66391 53.6521 1.33506C54.794 0.954433 55.9359 0.573801 57.0778 0.383485C60.1228 -0.187463 61.455 0.954431 61.455 4.76075Z" fill="#FEFEFE"/>
</svg>
