<svg width="49" height="57" viewBox="0 0 49 57" fill="none" xmlns="http://www.w3.org/2000/svg">
<path d="M20.2972 31.0251C15.0375 30.1174 10.8298 32.6892 9.92812 37.0764C9.02646 41.6149 11.7314 45.6995 16.2397 46.7585C21.1989 47.8175 25.8574 43.8842 25.8574 38.2867C25.8574 26.9405 25.8574 15.443 25.8574 4.09674C25.8574 0.163386 25.8574 0.163385 29.7646 0.163385C31.4177 0.163385 33.3713 -0.290463 34.874 0.314669C36.5271 1.07108 35.7757 3.34033 36.3768 4.85316C38.4806 9.84549 42.0873 12.7199 47.347 13.6276C48.5492 13.7788 49 13.9301 49 15.2917C48.8497 17.5609 48.8497 19.8302 49 22.0994C49 23.461 48.5492 23.7635 47.347 23.6122C43.2895 23.1584 39.3823 21.9481 35.6254 19.3763C35.6254 26.184 35.6254 32.5379 35.6254 39.0431C35.6254 43.7329 33.9724 47.8175 30.9668 51.297C25.5569 57.3483 16.0895 58.7099 9.02646 54.7765C1.96347 50.8432 -1.49289 42.5226 0.61098 34.5046C2.71485 26.3353 9.77784 20.8891 17.8928 20.8891C19.6961 20.8891 20.5977 21.343 20.4475 23.461C20.1469 25.7302 20.2972 28.302 20.2972 31.0251Z" fill="#FEFEFE"/>
</svg>
