<svg width="64" height="53" viewBox="0 0 64 53" fill="none" xmlns="http://www.w3.org/2000/svg">
<path d="M0.491211 46.6543C7.65499 47.2199 13.6876 45.7117 19.1547 41.5643C16.5155 40.8102 14.0647 40.2446 11.991 38.7365C9.91724 37.0398 8.40907 35.1546 7.65499 32.5153C9.16316 32.5153 10.4828 32.5153 11.8024 32.5153C9.5402 31.0071 7.08943 29.499 5.39274 27.2367C3.69606 24.9745 2.75346 22.3352 2.94198 19.3189C4.63866 19.5074 5.9583 20.6385 7.84351 20.2615C2.94198 15.3599 1.62233 9.89283 4.82718 3.29461C7.08943 5.55686 8.97464 7.63059 11.2369 9.32727C16.704 13.4747 22.7366 15.9255 29.5234 16.6796C31.0315 16.8681 31.4086 16.6796 31.4086 14.9829C31.0315 9.32727 33.2938 4.9913 38.1953 2.54053C43.0968 -0.0987546 47.9984 0.466808 52.5229 3.86018C53.654 4.80278 54.7851 4.9913 56.1048 4.42574C57.99 3.67166 59.8752 2.91758 61.9489 2.16349C61.3833 4.80278 59.4981 6.68799 57.4244 8.57319C59.6866 8.76171 61.3833 7.63059 63.6456 7.06502C62.3259 9.13875 60.8178 10.8354 59.1211 12.1551C57.8014 13.2862 57.2359 14.4173 57.2359 16.114C56.6703 29.6875 50.8262 40.6217 38.7609 47.4084C26.6956 54.3837 14.2532 53.8181 1.99938 47.4084C1.81085 47.4084 1.43381 47.2199 0.491211 46.6543Z" fill="#FEFEFE"/>
</svg>
