<svg width="65" height="40" viewBox="0 0 65 40" fill="none" xmlns="http://www.w3.org/2000/svg">
<path d="M48.607 20.2086C56.9941 24.6896 62.3314 31.2245 65 40C61.3783 40 57.9472 40 54.7067 40C53.3724 40 53.1818 39.2532 52.8006 38.3196C50.132 32.1581 45.7478 27.8637 39.0763 26.1833C37.1701 25.6232 36.7889 25.9966 36.7889 27.8637C36.9795 31.2246 36.7889 34.3986 36.7889 37.7595C36.7889 39.4399 36.4076 39.8133 34.6921 39.8133C18.6804 40 6.48094 30.6644 2.09678 15.1673C0.95308 10.873 0.190616 6.39189 0 1.91081C0 0.230406 0.381232 -0.143017 1.90616 0.0436944C4.19355 0.230406 6.48094 0.230406 8.95895 0.0436944C10.6745 -0.143017 11.2463 0.417119 11.2463 2.09752C11.4369 7.69888 12.5806 13.3002 15.4399 18.3414C17.7273 22.4491 20.9677 25.8099 26.1144 27.3036C26.1144 20.582 26.1144 14.0471 26.1144 7.69888C26.1144 5.64505 26.1144 3.40451 26.1144 1.35068C26.1144 0.417119 26.305 0.0436944 27.4487 0.0436944C29.9267 0.0436944 32.5953 0.0436944 35.0733 0.0436944C36.4076 0.0436944 36.7889 0.417117 36.5982 1.7241C36.5982 5.83176 36.5982 9.93942 36.5982 14.0471C36.5982 15.9142 37.1701 15.9142 38.695 15.3541C44.9853 12.9268 48.607 8.0723 51.085 2.28424C51.8475 0.603831 52.4194 0.0436944 54.3255 0.0436944C56.4223 0.230406 58.7097 0.230406 60.8065 0.0436944C62.3314 0.0436944 62.522 0.417117 62.1408 1.7241C60.2346 9.7527 55.4692 15.5408 48.607 20.2086Z" fill="#FEFEFE"/>
</svg>
