<svg width="35" height="35" viewBox="0 0 35 35" fill="none" xmlns="http://www.w3.org/2000/svg">
<path d="M29.0427 18.9995C28.4769 18.2849 28.6388 17.967 29.0427 17.3282C29.05 17.321 33.721 10.8664 34.2023 8.67741L34.2052 8.67595C34.4444 7.87824 34.2052 7.29199 33.0488 7.29199H29.2221C28.2479 7.29199 27.7988 7.79512 27.5581 8.35803C27.5581 8.35803 25.6098 13.0218 22.8535 16.0449C21.964 16.9185 21.5527 17.1985 21.0671 17.1985C20.8279 17.1985 20.456 16.9185 20.456 16.1207V8.67595C20.456 7.71928 20.1833 7.29199 19.3769 7.29199H13.3598C12.7488 7.29199 12.3856 7.73824 12.3856 8.15387C12.3856 9.06095 13.7638 9.26949 13.9067 11.8216V17.3589C13.9067 18.5722 13.6865 18.7953 13.1979 18.7953C11.8971 18.7953 8.73979 14.1126 6.86875 8.75324C6.49104 7.71345 6.12208 7.29345 5.14063 7.29345H1.3125C0.220208 7.29345 0 7.79658 0 8.35949C0 9.35408 1.30083 14.2993 6.04917 20.8326C9.21375 25.2922 13.6704 27.7087 17.7246 27.7087C20.1615 27.7087 20.459 27.172 20.459 26.2489C20.459 21.9876 20.2388 21.5851 21.4594 21.5851C22.0252 21.5851 22.9994 21.8651 25.2744 24.0162C27.8746 26.5668 28.3019 27.7087 29.7573 27.7087H33.584C34.6748 27.7087 35.2275 27.172 34.9096 26.1132C34.1819 23.8864 29.2644 19.3057 29.0427 18.9995Z" fill="#0697FF"/>
</svg>
