<svg width="65" height="46" viewBox="0 0 65 46" fill="none" xmlns="http://www.w3.org/2000/svg">
<path d="M63.3584 8.13803C62.5971 4.33171 60.123 2.04792 56.1264 1.66729C40.3302 0.144759 24.5339 0.144759 8.73772 1.66729C4.55077 2.04792 2.07666 4.52203 1.31539 8.51866C-0.397449 18.2248 -0.397449 27.7406 1.31539 37.4467C2.07666 41.824 4.55076 44.1077 9.11835 44.6787C16.9213 45.6303 24.7243 45.6303 32.3369 45.6303C40.1398 45.6303 48.1331 45.6303 55.9361 44.6787C60.123 44.1077 62.5971 42.0143 63.3584 38.0176C65.2616 28.1212 65.2616 18.0345 63.3584 8.13803ZM27.579 32.8791V13.2766L43.9462 22.9827L27.579 32.8791Z" fill="#FEFEFE"/>
</svg>
