<svg width="32" height="41" viewBox="0 0 32 41" fill="none" xmlns="http://www.w3.org/2000/svg">
<path d="M31.8073 20.6708C31.8073 25.2355 31.8141 29.7933 31.8073 34.358C31.8004 37.1118 30.1673 39.4078 27.6184 40.1732C27.0239 40.3508 26.3748 40.4328 25.7461 40.4396C19.2202 40.4601 12.6876 40.4602 6.16175 40.4465C2.70408 40.4397 0.127917 37.8635 0.107417 34.4058C0.0937499 32.5062 0.0937499 30.5997 0.107417 28.7C0.121083 27.2308 1.37842 26.2742 2.69725 26.6978C3.53092 26.9643 4.06392 27.7092 4.06392 28.6385C4.07075 30.5245 4.06392 32.4105 4.06392 34.2965C4.06392 35.6837 4.86342 36.4968 6.24375 36.5037C12.7081 36.5105 19.1724 36.5105 25.6436 36.5037C27.0308 36.5037 27.8302 35.6905 27.8302 34.3033C27.8302 25.2082 27.8302 16.113 27.8302 7.02465C27.8302 5.61015 27.0308 4.81065 25.6163 4.81065C19.1656 4.81065 12.7149 4.81065 6.26425 4.81065C4.87708 4.81065 4.07075 5.61699 4.07075 6.99732C4.07075 8.91749 4.07758 10.8308 4.06392 12.751C4.05708 13.7418 3.36008 14.5277 2.39658 14.6985C1.48092 14.8557 0.54475 14.3022 0.230417 13.407C0.162083 13.2225 0.107417 13.0175 0.107417 12.8193C0.11425 10.5643 0.0390834 8.29565 0.182583 6.04749C0.373917 3.30049 2.88175 0.997655 5.63558 0.888321C6.88608 0.840488 8.14342 0.867821 9.39392 0.867821C14.8401 0.867821 20.2863 0.860988 25.7256 0.867821C28.7323 0.874655 31.1103 2.79482 31.6843 5.69215C31.7731 6.15682 31.8004 6.64199 31.8004 7.12032C31.8073 11.6372 31.8073 16.154 31.8073 20.6708Z" fill="#2E7EFF"/>
<path d="M17.1011 18.6823C16.2059 17.7803 15.4064 16.9672 14.6001 16.1608C13.9577 15.5117 13.3017 14.8762 12.6594 14.227C11.7916 13.3523 11.7642 12.1428 12.5774 11.3297C13.3906 10.5165 14.6001 10.5438 15.4747 11.4185C18.0509 13.981 20.6202 16.5503 23.1827 19.1265C24.1052 20.049 24.1121 21.2517 23.1964 22.1742C20.6339 24.7503 18.0646 27.3197 15.4884 29.8822C14.5932 30.7773 13.3837 30.8047 12.5569 29.9642C11.7506 29.1373 11.7916 27.9552 12.6731 27.0737C14.0056 25.7412 15.3449 24.4087 16.6842 23.083C16.8004 22.9668 16.9576 22.8917 17.1011 22.8028C17.0669 22.7482 17.0327 22.6935 16.9917 22.6388C16.8277 22.6388 16.6706 22.6388 16.5066 22.6388C11.7574 22.6388 7.01507 22.6388 2.26591 22.6388C1.08374 22.6388 0.304739 22.0033 0.133906 20.9305C-0.0369272 19.8508 0.783073 18.8053 1.86957 18.7097C2.06774 18.6892 2.27274 18.696 2.47091 18.696C7.13807 18.696 11.8121 18.696 16.4792 18.696C16.6501 18.6823 16.8141 18.6823 17.1011 18.6823Z" fill="#2E7EFF"/>
</svg>
