<svg width="1040" height="380" viewBox="0 0 1040 380" fill="none" xmlns="http://www.w3.org/2000/svg">
<path d="M128.463 334.506C125.257 334.506 122.002 334.156 118.696 333.455C115.39 332.854 112.235 331.852 109.229 330.449C106.224 329.047 103.569 327.244 101.265 325.04C99.0615 322.836 97.4587 320.181 96.4569 317.076H103.519C105.122 320.181 107.326 322.636 110.131 324.439C112.936 326.142 115.941 327.344 119.147 328.045C122.453 328.746 125.608 329.097 128.613 329.097C131.218 329.097 133.923 328.897 136.728 328.496C139.533 327.995 142.137 327.194 144.541 326.092C147.046 324.89 149.049 323.287 150.552 321.283C152.055 319.18 152.806 316.525 152.806 313.319C152.806 310.013 151.954 307.409 150.251 305.506C148.649 303.602 146.595 302.15 144.091 301.148C141.586 300.046 139.132 299.245 136.728 298.744C135.325 298.443 133.823 298.143 132.22 297.842C130.617 297.542 128.964 297.241 127.261 296.941C124.256 296.44 121.1 295.789 117.794 294.987C114.489 294.086 111.383 292.833 108.478 291.231C105.573 289.628 103.219 287.474 101.416 284.769C99.6124 282.064 98.7108 278.608 98.7108 274.401C98.7108 270.294 99.5123 266.888 101.115 264.183C102.818 261.478 105.022 259.324 107.727 257.722C110.532 256.119 113.637 254.967 117.043 254.266C120.549 253.564 124.105 253.214 127.712 253.214C131.619 253.214 135.475 253.765 139.282 254.867C143.189 255.969 146.595 257.722 149.5 260.126C152.405 262.53 154.459 265.686 155.661 269.593H149.35C147.547 265.686 144.491 262.881 140.184 261.178C135.876 259.475 131.669 258.623 127.562 258.623C125.458 258.623 123.104 258.774 120.499 259.074C117.895 259.375 115.39 260.076 112.986 261.178C110.682 262.179 108.728 263.732 107.126 265.836C105.623 267.94 104.872 270.745 104.872 274.251C104.872 277.657 105.723 280.412 107.426 282.515C109.129 284.619 111.283 286.272 113.888 287.474C116.492 288.576 119.147 289.477 121.851 290.179C124.957 290.88 128.163 291.531 131.468 292.132C134.874 292.633 138.18 293.284 141.386 294.086C144.892 294.987 147.947 296.189 150.552 297.692C153.156 299.194 155.21 301.148 156.713 303.552C158.215 305.956 158.967 308.962 158.967 312.568C158.967 316.876 158.065 320.432 156.262 323.237C154.459 326.042 152.055 328.296 149.049 329.999C146.144 331.601 142.888 332.753 139.282 333.455C135.676 334.156 132.069 334.506 128.463 334.506ZM211.094 334.506C202.88 334.506 195.968 332.753 190.358 329.247C184.848 325.741 180.691 320.933 177.886 314.822C175.081 308.711 173.678 301.749 173.678 293.935C173.678 286.021 175.081 279.009 177.886 272.898C180.691 266.788 184.848 261.979 190.358 258.473C195.968 254.967 202.88 253.214 211.094 253.214C219.309 253.214 226.171 254.967 231.68 258.473C237.29 261.979 241.498 266.788 244.302 272.898C247.208 279.009 248.66 286.021 248.66 293.935C248.66 301.749 247.208 308.711 244.302 314.822C241.498 320.933 237.29 325.741 231.68 329.247C226.171 332.753 219.309 334.506 211.094 334.506ZM211.094 329.097C218.307 329.097 224.217 327.544 228.825 324.439C233.433 321.333 236.839 317.126 239.043 311.817C241.247 306.507 242.349 300.547 242.349 293.935C242.349 287.424 241.247 281.513 239.043 276.204C236.839 270.795 233.433 266.537 228.825 263.432C224.217 260.226 218.307 258.623 211.094 258.623C203.881 258.623 197.971 260.226 193.363 263.432C188.755 266.537 185.349 270.795 183.145 276.204C181.041 281.513 179.99 287.424 179.99 293.935C179.99 300.547 181.041 306.507 183.145 311.817C185.349 317.126 188.755 321.333 193.363 324.439C197.971 327.544 203.881 329.097 211.094 329.097ZM267.964 333.455V227.218H274.275V333.455H267.964ZM328.127 334.506C316.908 334.506 308.793 331.451 303.785 325.34C298.776 319.23 296.271 310.564 296.271 299.345V254.266H302.583V299.495C302.583 305.105 303.384 310.164 304.987 314.672C306.69 319.18 309.394 322.736 313.101 325.34C316.908 327.845 321.916 329.097 328.127 329.097C334.639 329.097 339.748 327.895 343.454 325.491C347.261 322.986 349.966 319.53 351.569 315.122C353.272 310.615 354.123 305.405 354.123 299.495V254.266H360.434V299.345C360.434 310.464 357.93 319.129 352.921 325.34C347.912 331.451 339.648 334.506 328.127 334.506ZM413.828 333.455C408.419 333.455 403.911 332.603 400.305 330.9C396.798 329.097 394.144 326.342 392.341 322.636C390.638 318.929 389.786 314.171 389.786 308.361V259.525H375.812V254.266H389.786V230.524H396.097V254.266H419.538V259.525H396.097V307.76C396.097 314.571 397.5 319.68 400.305 323.086C403.109 326.392 408.018 328.045 415.03 328.045H419.087V333.455H413.828ZM436.124 333.455V254.266H442.435V333.455H436.124ZM439.129 239.389C437.426 239.389 436.024 238.889 434.922 237.887C433.82 236.885 433.269 235.382 433.269 233.379C433.269 231.476 433.82 230.073 434.922 229.172C436.124 228.17 437.576 227.669 439.279 227.669C440.982 227.669 442.385 228.17 443.487 229.172C444.589 230.173 445.14 231.576 445.14 233.379C445.14 235.282 444.538 236.785 443.336 237.887C442.234 238.889 440.832 239.389 439.129 239.389ZM498.855 334.506C490.641 334.506 483.729 332.753 478.119 329.247C472.609 325.741 468.452 320.933 465.647 314.822C462.842 308.711 461.44 301.749 461.44 293.935C461.44 286.021 462.842 279.009 465.647 272.898C468.452 266.788 472.609 261.979 478.119 258.473C483.729 254.967 490.641 253.214 498.855 253.214C507.07 253.214 513.932 254.967 519.441 258.473C525.051 261.979 529.259 266.788 532.064 272.898C534.969 279.009 536.421 286.021 536.421 293.935C536.421 301.749 534.969 308.711 532.064 314.822C529.259 320.933 525.051 325.741 519.441 329.247C513.932 332.753 507.07 334.506 498.855 334.506ZM498.855 329.097C506.068 329.097 511.978 327.544 516.586 324.439C521.195 321.333 524.601 317.126 526.804 311.817C529.008 306.507 530.11 300.547 530.11 293.935C530.11 287.424 529.008 281.513 526.804 276.204C524.601 270.795 521.195 266.537 516.586 263.432C511.978 260.226 506.068 258.623 498.855 258.623C491.643 258.623 485.732 260.226 481.124 263.432C476.516 266.537 473.11 270.795 470.906 276.204C468.803 281.513 467.751 287.424 467.751 293.935C467.751 300.547 468.803 306.507 470.906 311.817C473.11 317.126 476.516 321.333 481.124 324.439C485.732 327.544 491.643 329.097 498.855 329.097ZM555.425 333.455V254.266H561.736V269.893C564.14 265.886 566.895 262.68 570.001 260.276C573.106 257.872 576.512 256.119 580.219 255.017C583.925 253.815 587.832 253.214 591.939 253.214C599.552 253.214 605.563 254.867 609.971 258.172C614.479 261.478 617.684 265.886 619.588 271.396C621.591 276.805 622.593 282.866 622.593 289.578V333.455H616.282V293.334C616.282 288.926 615.981 284.669 615.38 280.562C614.779 276.455 613.627 272.748 611.924 269.442C610.221 266.136 607.717 263.532 604.411 261.629C601.205 259.625 596.998 258.623 591.789 258.623C585.177 258.623 579.617 260.226 575.11 263.432C570.702 266.637 567.346 270.895 565.042 276.204C562.838 281.413 561.736 287.073 561.736 293.184V333.455H555.425Z" fill="black"/>
<path d="M77.2154 213.748L0.900635 0.99739H60.1036L112.685 168.051L163.168 0.931824H222.043L146.384 213.748H77.2154Z" fill="white"/>
<path d="M222.174 213.748V55.3487H275.345V213.748H222.174Z" fill="white"/>
<path d="M293.899 213.748V55.3487H340.449L344.055 70.3625C348.054 64.5275 352.447 60.3315 357.298 57.709C362.084 55.0865 366.936 53.513 371.722 52.9229C376.508 52.3328 380.966 52.005 384.966 52.005C388.375 52.005 391.456 52.0706 394.276 52.1362C397.095 52.2673 413.223 52.8574 414.075 53.054L399.717 103.931H389.49C382.081 103.931 375.131 104.914 368.575 106.815C362.084 108.717 356.839 112.323 352.971 117.633C349.037 122.944 347.136 130.877 347.136 141.498V213.617H293.899V213.748Z" fill="white"/>
<path d="M465.804 216.174C458.396 216.174 451.381 215.19 444.759 213.158C438.137 211.125 432.302 208.175 427.188 204.11C422.074 200.111 418.009 195.062 414.993 189.096C411.978 183.064 410.47 175.984 410.47 167.788C410.47 155.79 413.027 146.349 418.14 139.531C423.254 132.712 430.138 127.73 438.858 124.517C447.578 121.305 457.478 119.272 468.624 118.354C479.769 117.436 491.308 116.977 503.306 116.977H510.518C510.518 113.175 509.6 109.766 507.83 106.75C505.994 103.734 503.503 101.308 500.159 99.5378C496.815 97.7677 492.816 96.8498 487.964 96.8498C484.555 96.8498 481.277 97.3743 478.065 98.3577C474.852 99.3412 472.229 100.718 470.131 102.423C468.033 104.127 466.788 106.16 466.394 108.585H413.485C414.666 98.7511 417.616 90.2935 422.205 83.2128C426.795 76.132 432.63 70.297 439.645 65.7732C446.66 61.2493 454.528 57.9057 463.247 55.6765C471.967 53.4474 481.015 52.3984 490.456 52.3984C513.665 52.3984 531.301 58.8891 543.168 71.8049C555.1 84.7207 561.067 103.734 561.067 128.779L561.329 162.412L510.846 215.059L512.091 193.03C506.846 200.832 501.011 206.339 494.521 209.552C488.03 212.764 482.064 214.666 476.819 215.256C471.443 215.846 467.837 216.174 465.804 216.174ZM480.228 175.59C485.211 175.59 490.062 174.345 494.783 171.853C499.503 169.362 503.372 166.215 506.519 162.412C509.6 158.61 511.174 154.807 511.174 151.004V149.824H481.408C478.982 149.824 476.688 150.087 474.524 150.545C472.295 151.07 470.394 151.791 468.689 152.775C466.984 153.758 465.608 155.069 464.624 156.708C463.641 158.282 463.116 160.314 463.116 162.74C463.116 165.559 463.837 167.92 465.345 169.821C466.853 171.722 468.886 173.165 471.508 174.148C474.131 175.066 477.016 175.59 480.228 175.59Z" fill="white"/>
<path d="M577.982 213.748L540.283 213.42L644.987 102.816H577.982L592.34 55.152L713.499 55.3487V93.5061L646.495 165.953H713.565L701.567 213.42L706.55 194.407H612.402L625.449 213.42L577.982 213.748Z" fill="white"/>
<path d="M731.791 194.407V0.997437H784.963V69.8381C789.945 64.6586 795.387 60.7904 801.222 58.2991C807.057 55.8077 812.695 54.1686 818.203 53.3163C823.71 52.5296 828.299 52.1362 831.905 52.1362C846.329 52.1362 857.671 55.5454 865.998 62.3639C874.324 69.1824 880.225 78.23 883.7 89.5724C887.174 100.915 888.945 113.175 888.945 126.418V194.538H835.773V130.942C835.773 127.73 835.38 124.386 834.593 120.846C833.807 117.371 832.43 114.093 830.528 111.077C828.627 108.061 826.07 105.635 822.858 103.734C819.645 101.833 815.515 100.849 810.532 100.849C805.943 100.849 801.943 101.701 798.665 103.406C795.387 105.111 792.699 107.471 790.732 110.487C788.7 113.503 787.257 116.846 786.405 120.583C785.487 124.32 785.028 128.123 785.028 132.122V194.538H731.791V194.407Z" fill="white"/>
<path d="M220.863 36.1389C220.863 36.1389 277.902 42.2362 276.853 23.9443C276.853 23.9443 274.821 6.04573 243.547 14.1755C243.547 14.241 224.075 19.6827 220.863 36.1389Z" fill="white"/>
<path d="M639.479 231.515H655.476L630.432 241.481L644.921 239.514L659.017 258.92L915.891 221.943L657.05 275.18L643.479 327.63L667.54 326.646L608.403 351.691L697.109 319.828L687.799 288.292L724.71 331.105L769.686 318.648L699.534 348.675L730.611 340.677L751.919 365.525L1039.41 195.325L888.879 194.407V213.42H835.773V194.407H784.962V213.42H731.595V194.407H706.353L701.567 213.42L625.777 213.617L639.479 231.515Z" fill="#2E7EFF"/>
</svg>
